<svg height="400" width="600" version="1.1" xmlns="http://www.w3.org/2000/svg">
<g class="x axis" transform="translate(0,380)" style="opacity: 1; "><g style="opacity: 1; " transform="translate(50,0)"><line class="tick" x2="0" y2="6" style="stroke: #000000; "></line><text x="0" y="9" dy=".71em" text-anchor="middle">1700</text></g><g style="opacity: 1; " transform="translate(147.14285714285714,0)"><line class="tick" x2="0" y2="6" style="stroke: #000000; "></line><text x="0" y="9" dy=".71em" text-anchor="middle">1800</text></g><g style="opacity: 1; " transform="translate(244.28571428571428,0)"><line class="tick" x2="0" y2="6" style="stroke: #000000; "></line><text x="0" y="9" dy=".71em" text-anchor="middle">1900</text></g><g style="opacity: 1; " transform="translate(341.4285714285714,0)"><line class="tick" x2="0" y2="6" style="stroke: #000000; "></line><text x="0" y="9" dy=".71em" text-anchor="middle">2000</text></g><g style="opacity: 1; " transform="translate(98.57142857142857,0)"><line class="tick" x2="0" y2="6"></line><text x="0" y="9" dy=".71em" text-anchor="middle">1750</text></g><g style="opacity: 1; " transform="translate(195.7142857142857,0)"><line class="tick" x2="0" y2="6"></line><text x="0" y="9" dy=".71em" text-anchor="middle">1850</text></g><g style="opacity: 1; " transform="translate(292.8571428571429,0)"><line class="tick" x2="0" y2="6"></line><text x="0" y="9" dy=".71em" text-anchor="middle">1950</text></g><g style="opacity: 1; " transform="translate(390,0)"><line class="tick" x2="0" y2="6"></line><text x="0" y="9" dy=".71em" text-anchor="middle">2050</text></g><path class="domain" d="M50,0V0H390V0" style="stroke: #000000; "></path></g><g class="y axis" transform="translate(50,0)" style="opacity: 1; "><g style="opacity: 1; " transform="translate(0,330)"><line class="tick" x2="-6" y2="0" style="stroke: #000000; "></line><text x="-9" y="0" dy=".32em" text-anchor="end">40</text></g><g style="opacity: 1; " transform="translate(0,230)"><line class="tick" x2="-6" y2="0" style="stroke: #000000; "></line><text x="-9" y="0" dy=".32em" text-anchor="end">60</text></g><g style="opacity: 1; " transform="translate(0,130)"><line class="tick" x2="-6" y2="0" style="stroke: #000000; "></line><text x="-9" y="0" dy=".32em" text-anchor="end">80</text></g><g style="opacity: 1; " transform="translate(0,30)"><line class="tick" x2="-6" y2="0" style="stroke: #000000; "></line><text x="-9" y="0" dy=".32em" text-anchor="end">100</text></g><path class="domain" d="M0,30H0V380H0" style="stroke: #000000; "></path></g><text transform="rotate(-90) translate(-100,20)" x="20" y="0">MSA%</text><g class="series" id="g7" style="opacity: 1; "><g class="lines" style="opacity: 1; "><line x1="50" x2="147.14285714285714" y1="43.08244815221502" y2="48.91737714303298" style="stroke: #000000; stroke-width: 2px; "></line><line x1="147.14285714285714" x2="244.28571428571428" y1="48.91737714303298" y2="71.3507216411225" style="stroke: #000000; stroke-width: 2px; "></line><line x1="244.28571428571428" x2="312.2857142857143" y1="71.3507216411225" y2="151.04993870441803" style="stroke: #000000; stroke-width: 2px; "></line><line x1="312.2857142857143" x2="341.4285714285714" y1="151.04993870441803" y2="180.83230601014552" style="stroke: #000000; stroke-width: 2px; "></line><line x1="341.4285714285714" x2="351.1428571428571" y1="180.83230601014552" y2="192.3770108458455" style="stroke: #000000; stroke-width: 2px; "></line><line x1="351.1428571428571" x2="360.85714285714283" y1="192.3770108458455" y2="206.77135050232502" style="stroke: #000000; stroke-width: 2px; "></line><line x1="360.85714285714283" x2="370.57142857142856" y1="206.77135050232502" y2="214.837484611737" style="stroke: #000000; stroke-width: 2px; "></line><line x1="370.57142857142856" x2="390" y1="214.837484611737" y2="227.80770595994252" style="stroke: #000000; stroke-width: 2px; "></line></g><g class="circles" style="opacity: 1; "></g><rect class="labelR" x="400" y="212.80770595994252" width="71" height="20" style="fill: #ffffff; stroke: #000000; "></rect><text class="labelText" x="405" y="227.80770595994252">Total MSA</text></g><g class="series" id="g0"><g class="lines"><line x1="50" x2="147.14285714285714" y1="32.54148801425896" y2="35.98601632629851" style="stroke: #9edae5; stroke-width: 2px; "></line><line x1="147.14285714285714" x2="244.28571428571428" y1="35.98601632629851" y2="39.81270386842556" style="stroke: #9edae5; stroke-width: 2px; "></line><line x1="244.28571428571428" x2="312.2857142857143" y1="39.81270386842556" y2="53.813401100240526" style="stroke: #9edae5; stroke-width: 2px; "></line><line x1="312.2857142857143" x2="341.4285714285714" y1="53.813401100240526" y2="68.86577393242248" style="stroke: #9edae5; stroke-width: 2px; "></line><line x1="341.4285714285714" x2="351.1428571428571" y1="68.86577393242248" y2="76.10105987328802" style="stroke: #9edae5; stroke-width: 2px; "></line><line x1="351.1428571428571" x2="360.85714285714283" y1="76.10105987328802" y2="85.030293464627" style="stroke: #9edae5; stroke-width: 2px; "></line><line x1="360.85714285714283" x2="370.57142857142856" y1="85.030293464627" y2="87.30709330841205" style="stroke: #9edae5; stroke-width: 2px; "></line><line x1="370.57142857142856" x2="390" y1="87.30709330841205" y2="99.78815586298504" style="stroke: #9edae5; stroke-width: 2px; "></line></g><g class="circles"></g><rect class="labelR" x="400" y="84.78815586298504" width="83" height="20" style="fill: #ffffff; stroke: #9edae5; "></rect><text class="labelText" x="405" y="99.78815586298504">Polar/Tundra</text></g><g class="series" id="g2"><g class="lines"><line x1="50" x2="147.14285714285714" y1="47.75652399509397" y2="57.46176561515102" style="stroke: #9ac956; stroke-width: 2px; "></line><line x1="147.14285714285714" x2="244.28571428571428" y1="57.46176561515102" y2="82.62725836666004" style="stroke: #9ac956; stroke-width: 2px; "></line><line x1="244.28571428571428" x2="312.2857142857143" y1="82.62725836666004" y2="180.75779242352556" style="stroke: #9ac956; stroke-width: 2px; "></line><line x1="312.2857142857143" x2="341.4285714285714" y1="180.75779242352556" y2="223.65406537183748" style="stroke: #9ac956; stroke-width: 2px; "></line><line x1="341.4285714285714" x2="351.1428571428571" y1="223.65406537183748" y2="236.14136421452" style="stroke: #9ac956; stroke-width: 2px; "></line><line x1="351.1428571428571" x2="360.85714285714283" y1="236.14136421452" y2="258.5769536795165" style="stroke: #9ac956; stroke-width: 2px; "></line><line x1="360.85714285714283" x2="370.57142857142856" y1="258.5769536795165" y2="273.671365355678" style="stroke: #9ac956; stroke-width: 2px; "></line><line x1="370.57142857142856" x2="390" y1="273.671365355678" y2="292.497922733024" style="stroke: #9ac956; stroke-width: 2px; "></line></g><g class="circles"></g><rect class="labelR" x="400" y="277.497922733024" width="119" height="20" style="fill: #ffffff; stroke: #9ac956; "></rect><text class="labelText" x="405" y="292.497922733024">Scrubland/savanna</text></g><g class="series" id="g3"><g class="lines"><line x1="50" x2="147.14285714285714" y1="32.4934490666725" y2="34.3551749764635" style="stroke: #98c10f; stroke-width: 2px; "></line><line x1="147.14285714285714" x2="244.28571428571428" y1="34.3551749764635" y2="41.3329451925585" style="stroke: #98c10f; stroke-width: 2px; "></line><line x1="244.28571428571428" x2="312.2857142857143" y1="41.3329451925585" y2="107.83942844059851" style="stroke: #98c10f; stroke-width: 2px; "></line><line x1="312.2857142857143" x2="341.4285714285714" y1="107.83942844059851" y2="126.69262858650598" style="stroke: #98c10f; stroke-width: 2px; "></line><line x1="341.4285714285714" x2="351.1428571428571" y1="126.69262858650598" y2="140.10104384971845" style="stroke: #98c10f; stroke-width: 2px; "></line><line x1="351.1428571428571" x2="360.85714285714283" y1="140.10104384971845" y2="149.0564942601685" style="stroke: #98c10f; stroke-width: 2px; "></line><line x1="360.85714285714283" x2="370.57142857142856" y1="149.0564942601685" y2="154.9344436079535" style="stroke: #98c10f; stroke-width: 2px; "></line><line x1="370.57142857142856" x2="390" y1="154.9344436079535" y2="168.20616948583995" style="stroke: #98c10f; stroke-width: 2px; "></line></g><g class="circles"></g><rect class="labelR" x="400" y="153.20616948583995" width="90" height="20" style="fill: #ffffff; stroke: #98c10f; "></rect><text class="labelText" x="405" y="168.20616948583995">Boreal forests</text></g><g class="series" id="g4"><g class="lines"><line x1="50" x2="147.14285714285714" y1="66.385255061804" y2="79.22573481910098" style="stroke: #b19f10; stroke-width: 2px; "></line><line x1="147.14285714285714" x2="244.28571428571428" y1="79.22573481910098" y2="143.83090655558496" style="stroke: #b19f10; stroke-width: 2px; "></line><line x1="244.28571428571428" x2="312.2857142857143" y1="143.83090655558496" y2="281.42109554603" style="stroke: #b19f10; stroke-width: 2px; "></line><line x1="312.2857142857143" x2="341.4285714285714" y1="281.42109554603" y2="330.5352324573475" style="stroke: #b19f10; stroke-width: 2px; "></line><line x1="341.4285714285714" x2="351.1428571428571" y1="330.5352324573475" y2="343.466825876303" style="stroke: #b19f10; stroke-width: 2px; "></line><line x1="351.1428571428571" x2="360.85714285714283" y1="343.466825876303" y2="356.7532946531535" style="stroke: #b19f10; stroke-width: 2px; "></line><line x1="360.85714285714283" x2="370.57142857142856" y1="356.7532946531535" y2="366.1335020206015" style="stroke: #b19f10; stroke-width: 2px; "></line><line x1="370.57142857142856" x2="390" y1="366.1335020206015" y2="378.3680793999395" style="stroke: #b19f10; stroke-width: 2px; "></line></g><g class="circles"></g><rect class="labelR" x="400" y="363.3680793999395" width="114" height="20" style="fill: #ffffff; stroke: #b19f10; "></rect><text class="labelText" x="405" y="378.3680793999395">Temperate forests</text></g><g class="series" id="g5"><g class="lines"><line x1="50" x2="147.14285714285714" y1="36.43524524959901" y2="38.63842564521502" style="stroke: #c97e12; stroke-width: 2px; "></line><line x1="147.14285714285714" x2="244.28571428571428" y1="38.63842564521502" y2="48.11485428230901" style="stroke: #c97e12; stroke-width: 2px; "></line><line x1="244.28571428571428" x2="312.2857142857143" y1="48.11485428230901" y2="148.19871131031854" style="stroke: #c97e12; stroke-width: 2px; "></line><line x1="312.2857142857143" x2="341.4285714285714" y1="148.19871131031854" y2="194.03335788152347" style="stroke: #c97e12; stroke-width: 2px; "></line><line x1="341.4285714285714" x2="351.1428571428571" y1="194.03335788152347" y2="204.6035802121005" style="stroke: #c97e12; stroke-width: 2px; "></line><line x1="351.1428571428571" x2="360.85714285714283" y1="204.6035802121005" y2="222.79478358502" style="stroke: #c97e12; stroke-width: 2px; "></line><line x1="360.85714285714283" x2="370.57142857142856" y1="222.79478358502" y2="234.840910304959" style="stroke: #c97e12; stroke-width: 2px; "></line><line x1="370.57142857142856" x2="390" y1="234.840910304959" y2="250.517826284421" style="stroke: #c97e12; stroke-width: 2px; "></line></g><g class="circles"></g><rect class="labelR" x="400" y="235.517826284421" width="98" height="20" style="fill: #ffffff; stroke: #c97e12; "></rect><text class="labelText" x="405" y="250.517826284421">Tropical forests</text></g><g class="series" id="g6"><g class="lines"><line x1="50" x2="147.14285714285714" y1="35.42500885014903" y2="37.5645304922125" style="stroke: #e25c13; stroke-width: 2px; "></line><line x1="147.14285714285714" x2="244.28571428571428" y1="37.5645304922125" y2="50.900848947626514" style="stroke: #e25c13; stroke-width: 2px; "></line><line x1="244.28571428571428" x2="312.2857142857143" y1="50.900848947626514" y2="75.07719365947503" style="stroke: #e25c13; stroke-width: 2px; "></line><line x1="312.2857142857143" x2="341.4285714285714" y1="75.07719365947503" y2="85.91684587187405" style="stroke: #e25c13; stroke-width: 2px; "></line><line x1="341.4285714285714" x2="351.1428571428571" y1="85.91684587187405" y2="93.98281039580803" style="stroke: #e25c13; stroke-width: 2px; "></line><line x1="351.1428571428571" x2="360.85714285714283" y1="93.98281039580803" y2="103.54970781633199" style="stroke: #e25c13; stroke-width: 2px; "></line><line x1="360.85714285714283" x2="370.57142857142856" y1="103.54970781633199" y2="107.716715965204" style="stroke: #e25c13; stroke-width: 2px; "></line><line x1="370.57142857142856" x2="390" y1="107.716715965204" y2="116.13900076904946" style="stroke: #e25c13; stroke-width: 2px; "></line></g><g class="circles"></g><rect class="labelR" x="400" y="101.13900076904946" width="70" height="20" style="fill: #ffffff; stroke: #e25c13; "></rect><text class="labelText" x="405" y="116.13900076904946">Hot desert</text></g><g class="series" id="g1"><g class="lines"><line x1="50" x2="147.14285714285714" y1="48.73492391937805" y2="56.67649417187903" style="stroke: #9cd29e; stroke-width: 2px; "></line><line x1="147.14285714285714" x2="244.28571428571428" y1="56.67649417187903" y2="87.79564339812902" style="stroke: #9cd29e; stroke-width: 2px; "></line><line x1="244.28571428571428" x2="312.2857142857143" y1="87.79564339812902" y2="191.89062189730402" style="stroke: #9cd29e; stroke-width: 2px; "></line><line x1="312.2857142857143" x2="341.4285714285714" y1="191.89062189730402" y2="215.72449208511148" style="stroke: #9cd29e; stroke-width: 2px; "></line><line x1="341.4285714285714" x2="351.1428571428571" y1="215.72449208511148" y2="230.06991677770552" style="stroke: #9cd29e; stroke-width: 2px; "></line><line x1="351.1428571428571" x2="360.85714285714283" y1="230.06991677770552" y2="245.8214310410085" style="stroke: #9cd29e; stroke-width: 2px; "></line><line x1="360.85714285714283" x2="370.57142857142856" y1="245.8214310410085" y2="249.85452188826" style="stroke: #9cd29e; stroke-width: 2px; "></line><line x1="370.57142857142856" x2="390" y1="249.85452188826" y2="258.6904717557725" style="stroke: #9cd29e; stroke-width: 2px; "></line></g><g class="circles"></g><rect class="labelR" x="400" y="243.69047175577248" width="112" height="20" style="fill: #ffffff; stroke: #9cd29e; "></rect><text class="labelText" x="405" y="258.6904717557725">Grassland/steppe</text></g></svg>