<svg width="660" height="350" version="1.1" xmlns="http://www.w3.org/2000/svg"><line class="gridlines" y1="330" y2="330" x1="50" x2="645" style="stroke: #9ecae1; "></line><line class="gridlines" y1="283.3333333333333" y2="283.3333333333333" x1="50" x2="645" style="stroke: #9ecae1; "></line><line class="gridlines" y1="236.66666666666669" y2="236.66666666666669" x1="50" x2="645" style="stroke: #9ecae1; "></line><line class="gridlines" y1="190" y2="190" x1="50" x2="645" style="stroke: #9ecae1; "></line><line class="gridlines" y1="143.33333333333334" y2="143.33333333333334" x1="50" x2="645" style="stroke: #9ecae1; "></line><line class="gridlines" y1="96.66666666666666" y2="96.66666666666666" x1="50" x2="645" style="stroke: #9ecae1; "></line><line class="gridlines" y1="50" y2="50" x1="50" x2="645" style="stroke: #9ecae1; "></line><g class="x axis" transform="translate(0,330)"><g style="opacity: 1; " transform="translate(95.76923076923077,0)"><line class="tick" x2="0" y2="6" style="stroke: #9ecae1; "></line><text x="0" y="9" dy=".71em" text-anchor="middle" style="fill: #9ecae1; ">1980</text></g><g style="opacity: 1; " transform="translate(187.30769230769232,0)"><line class="tick" x2="0" y2="6" style="stroke: #9ecae1; "></line><text x="0" y="9" dy=".71em" text-anchor="middle" style="fill: #9ecae1; ">2000</text></g><g style="opacity: 1; " transform="translate(278.84615384615387,0)"><line class="tick" x2="0" y2="6" style="stroke: #9ecae1; "></line><text x="0" y="9" dy=".71em" text-anchor="middle" style="fill: #9ecae1; ">2020</text></g><g style="opacity: 1; " transform="translate(370.3846153846154,0)"><line class="tick" x2="0" y2="6" style="stroke: #9ecae1; "></line><text x="0" y="9" dy=".71em" text-anchor="middle" style="fill: #9ecae1; ">2040</text></g><g style="opacity: 1; " transform="translate(461.9230769230769,0)"><line class="tick" x2="0" y2="6" style="stroke: #9ecae1; "></line><text x="0" y="9" dy=".71em" text-anchor="middle" style="fill: #9ecae1; ">2060</text></g><g style="opacity: 1; " transform="translate(553.4615384615386,0)"><line class="tick" x2="0" y2="6" style="stroke: #9ecae1; "></line><text x="0" y="9" dy=".71em" text-anchor="middle" style="fill: #9ecae1; ">2080</text></g><g style="opacity: 1; " transform="translate(645,0)"><line class="tick" x2="0" y2="6" style="stroke: #9ecae1; "></line><text x="0" y="9" dy=".71em" text-anchor="middle" style="fill: #9ecae1; ">2100</text></g><path class="domain" d="M50,0V0H645V0" style="stroke: #333333; "></path></g><g class="y axis" transform="translate(50,0)"><g style="opacity: 1; " transform="translate(0,330)"><line class="tick" x2="-6" y2="0" style="stroke: #9ecae1; "></line><text x="-9" y="0" dy=".32em" text-anchor="end" style="fill: #9ecae1; ">0.0</text></g><g style="opacity: 1; " transform="translate(0,274)"><line class="tick" x2="-6" y2="0" style="stroke: #9ecae1; "></line><text x="-9" y="0" dy=".32em" text-anchor="end" style="fill: #6fa7d3; ">1.0</text></g><g style="opacity: 1; " transform="translate(0,218)"><line class="tick" x2="-6" y2="0" style="stroke: #9ecae1; "></line><text x="-9" y="0" dy=".32em" text-anchor="end" style="fill: #4084c4; ">2.0</text></g><g style="opacity: 1; " transform="translate(0,161.99999999999997)"><line class="tick" x2="-6" y2="0" style="stroke: #9ecae1; "></line><text x="-9" y="0" dy=".32em" text-anchor="end" style="fill: #3969ae; ">3.0</text></g><g style="opacity: 1; " transform="translate(0,106)"><line class="tick" x2="-6" y2="0" style="stroke: #9ecae1; "></line><text x="-9" y="0" dy=".32em" text-anchor="end" style="fill: #5a5591; ">4.0</text></g><g style="opacity: 1; " transform="translate(0,50)"><line class="tick" x2="-6" y2="0" style="stroke: #9ecae1; "></line><text x="-9" y="0" dy=".32em" text-anchor="end" style="fill: #7b4173; ">5.0</text></g><path class="domain" d="M0,50H0V330H0" style="stroke: #333333; "></path></g><g class="series"><g class="lines"><line x1="50" x2="72.88461538461539" y1="315.343792" y2="314.359256" style="stroke-width: 1px; stroke: #92c1dd; "></line><line x1="72.88461538461539" x2="95.76923076923077" y1="314.359256" y2="309.94304" style="stroke-width: 1px; stroke: #91c0dd; "></line><line x1="95.76923076923077" x2="118.65384615384616" y1="309.94304" y2="304.32282399999997" style="stroke-width: 1px; stroke: #8dbedc; "></line><line x1="118.65384615384616" x2="141.53846153846155" y1="304.32282399999997" y2="299.017216" style="stroke-width: 1px; stroke: #89bada; "></line><line x1="141.53846153846155" x2="164.42307692307693" y1="299.017216" y2="293.089784" style="stroke-width: 1px; stroke: #84b7d9; "></line><line x1="164.42307692307693" x2="187.30769230769232" y1="293.089784" y2="287.631576" style="stroke-width: 1px; stroke: #7fb3d8; "></line><line x1="187.30769230769232" x2="210.1923076923077" y1="287.631576" y2="281.541464" style="stroke-width: 1px; stroke: #7bb0d6; "></line><line x1="210.1923076923077" x2="233.0769230769231" y1="281.541464" y2="273.99328" style="stroke-width: 1px; stroke: #76acd5; "></line><line x1="233.0769230769231" x2="255.96153846153845" y1="273.99328" y2="266.00824" style="stroke-width: 1px; stroke: #6fa7d3; "></line><line x1="255.96153846153845" x2="278.84615384615387" y1="266.00824" y2="256.66912" style="stroke-width: 1px; stroke: #69a2d1; "></line><line x1="278.84615384615387" x2="301.7307692307693" y1="256.66912" y2="247.29584" style="stroke-width: 1px; stroke: #619cce; "></line><line x1="301.7307692307693" x2="324.61538461538464" y1="247.29584" y2="237.76184" style="stroke-width: 1px; stroke: #5997cc; "></line><line x1="324.61538461538464" x2="347.5" y1="237.76184" y2="228.06712" style="stroke-width: 1px; stroke: #5191c9; "></line><line x1="347.5" x2="370.3846153846154" y1="228.06712" y2="218.39648" style="stroke-width: 1px; stroke: #498bc7; "></line><line x1="370.3846153846154" x2="393.26923076923083" y1="218.39648" y2="208.60264" style="stroke-width: 1px; stroke: #4185c4; "></line><line x1="393.26923076923083" x2="416.1538461538462" y1="208.60264" y2="198.68672" style="stroke-width: 1px; stroke: #397fc2; "></line><line x1="416.1538461538462" x2="439.03846153846155" y1="198.68672" y2="188.58936" style="stroke-width: 1px; stroke: #3078bf; "></line><line x1="439.03846153846155" x2="461.9230769230769" y1="188.58936" y2="178.20807999999997" style="stroke-width: 1px; stroke: #2a72bc; "></line><line x1="461.9230769230769" x2="484.8076923076923" y1="178.20807999999997" y2="167.50367999999997" style="stroke-width: 1px; stroke: #306fb7; "></line><line x1="484.8076923076923" x2="507.69230769230774" y1="167.50367999999997" y2="156.38712" style="stroke-width: 1px; stroke: #366bb1; "></line><line x1="507.69230769230774" x2="530.5769230769231" y1="156.38712" y2="144.86343999999997" style="stroke-width: 1px; stroke: #3d67ab; "></line><line x1="530.5769230769231" x2="553.4615384615386" y1="144.86343999999997" y2="133.14992" style="stroke-width: 1px; stroke: #4363a5; "></line><line x1="553.4615384615386" x2="576.3461538461539" y1="133.14992" y2="121.39551999999998" style="stroke-width: 1px; stroke: #4a5f9f; "></line><line x1="576.3461538461539" x2="599.2307692307693" y1="121.39551999999998" y2="109.71671999999998" style="stroke-width: 1px; stroke: #515a99; "></line><line x1="599.2307692307693" x2="622.1153846153846" y1="109.71671999999998" y2="98.05752000000001" style="stroke-width: 1px; stroke: #585693; "></line><line x1="622.1153846153846" x2="645" y1="98.05752000000001" y2="86.48231999999999" style="stroke-width: 1px; stroke: #5f528c; "></line></g><g class="circles"><circle cx="50" cy="315.343792" style="stroke: #ffffff; stroke-width: 0px; fill: #92c1dd; " r="5" class="circle c0"><title>1970: 0.3</title></circle><circle cx="72.88461538461539" cy="314.359256" style="stroke: #ffffff; stroke-width: 0px; fill: #91c0dd; " r="5" class="circle c1"><title>1975: 0.3</title></circle><circle cx="95.76923076923077" cy="309.94304" style="stroke: #ffffff; stroke-width: 0px; fill: #8dbedc; " r="5" class="circle c2"><title>1980: 0.4</title></circle><circle cx="118.65384615384616" cy="304.32282399999997" style="stroke: #ffffff; stroke-width: 0px; fill: #89bada; " r="5" class="circle c3"><title>1985: 0.5</title></circle><circle cx="141.53846153846155" cy="299.017216" style="stroke: #ffffff; stroke-width: 0px; fill: #84b7d9; " r="5" class="circle c4"><title>1990: 0.6</title></circle><circle cx="164.42307692307693" cy="293.089784" style="stroke: #ffffff; stroke-width: 0px; fill: #7fb3d8; " r="5" class="circle c5"><title>1995: 0.7</title></circle><circle cx="187.30769230769232" cy="287.631576" style="stroke: #ffffff; stroke-width: 0px; fill: #7bb0d6; " r="5" class="circle c6"><title>2000: 0.8</title></circle><circle cx="210.1923076923077" cy="281.541464" style="stroke: #ffffff; stroke-width: 0px; fill: #76acd5; " r="5" class="circle c7"><title>2005: 0.9</title></circle><circle cx="233.0769230769231" cy="273.99328" style="stroke: #ffffff; stroke-width: 0px; fill: #6fa7d3; " r="5" class="circle c8"><title>2010: 1.0</title></circle><circle cx="255.96153846153845" cy="266.00824" style="stroke: #ffffff; stroke-width: 0px; fill: #69a2d1; " r="5" class="circle c9"><title>2015: 1.1</title></circle><circle cx="278.84615384615387" cy="256.66912" style="stroke: #ffffff; stroke-width: 0px; fill: #619cce; " r="5" class="circle c10"><title>2020: 1.3</title></circle><circle cx="301.7307692307693" cy="247.29584" style="stroke: #ffffff; stroke-width: 0px; fill: #5997cc; " r="5" class="circle c11"><title>2025: 1.5</title></circle><circle cx="324.61538461538464" cy="237.76184" style="stroke: #ffffff; stroke-width: 0px; fill: #5191c9; " r="5" class="circle c12"><title>2030: 1.6</title></circle><circle cx="347.5" cy="228.06712" style="stroke: #ffffff; stroke-width: 0px; fill: #498bc7; " r="5" class="circle c13"><title>2035: 1.8</title></circle><circle cx="370.3846153846154" cy="218.39648" style="stroke: #ffffff; stroke-width: 0px; fill: #4185c4; " r="5" class="circle c14"><title>2040: 2.0</title></circle><circle cx="393.26923076923083" cy="208.60264" style="stroke: #ffffff; stroke-width: 0px; fill: #397fc2; " r="5" class="circle c15"><title>2045: 2.2</title></circle><circle cx="416.1538461538462" cy="198.68672" style="stroke: #ffffff; stroke-width: 0px; fill: #3078bf; " r="5" class="circle c16"><title>2050: 2.3</title></circle><circle cx="439.03846153846155" cy="188.58936" style="stroke: #ffffff; stroke-width: 0px; fill: #2a72bc; " r="5" class="circle c17"><title>2055: 2.5</title></circle><circle cx="461.9230769230769" cy="178.20807999999997" style="stroke: #ffffff; stroke-width: 0px; fill: #306fb7; " r="5" class="circle c18"><title>2060: 2.7</title></circle><circle cx="484.8076923076923" cy="167.50367999999997" style="stroke: #ffffff; stroke-width: 0px; fill: #366bb1; " r="5" class="circle c19"><title>2065: 2.9</title></circle><circle cx="507.69230769230774" cy="156.38712" style="stroke: #ffffff; stroke-width: 0px; fill: #3d67ab; " r="5" class="circle c20"><title>2070: 3.1</title></circle><circle cx="530.5769230769231" cy="144.86343999999997" style="stroke: #ffffff; stroke-width: 0px; fill: #4363a5; " r="5" class="circle c21"><title>2075: 3.3</title></circle><circle cx="553.4615384615386" cy="133.14992" style="stroke: #ffffff; stroke-width: 0px; fill: #4a5f9f; " r="5" class="circle c22"><title>2080: 3.5</title></circle><circle cx="576.3461538461539" cy="121.39551999999998" style="stroke: #ffffff; stroke-width: 0px; fill: #515a99; " r="5" class="circle c23"><title>2085: 3.7</title></circle><circle cx="599.2307692307693" cy="109.71671999999998" style="stroke: #ffffff; stroke-width: 0px; fill: #585693; " r="5" class="circle c24"><title>2090: 3.9</title></circle><circle cx="622.1153846153846" cy="98.05752000000001" style="stroke: #ffffff; stroke-width: 0px; fill: #5f528c; " r="5" class="circle c25"><title>2095: 4.1</title></circle><circle cx="645" cy="86.48231999999999" style="stroke: #ffffff; stroke-width: 0px; fill: #664e86; " r="5" class="circle c26"><title>2100: 4.3</title></circle></g></g></svg>