<svg width="615" height="450" version="1.1" xmlns="http://www.w3.org/2000/svg">
<g class="x axis" transform="translate(0,400)"><g style="opacity: 1; " transform="translate(100,0)"><line class="tick" x2="0" y2="6" style="stroke: #000000; "></line><text x="0" y="9" dy=".71em" text-anchor="middle">0</text></g><g style="opacity: 1; " transform="translate(193,0)"><line class="tick" x2="0" y2="6" style="stroke: #000000; "></line><text x="0" y="9" dy=".71em" text-anchor="middle">2000000</text></g><g style="opacity: 1; " transform="translate(286,0)"><line class="tick" x2="0" y2="6" style="stroke: #000000; "></line><text x="0" y="9" dy=".71em" text-anchor="middle">4000000</text></g><g style="opacity: 1; " transform="translate(379,0)"><line class="tick" x2="0" y2="6" style="stroke: #000000; "></line><text x="0" y="9" dy=".71em" text-anchor="middle">6000000</text></g><g style="opacity: 1; " transform="translate(471.99999999999994,0)"><line class="tick" x2="0" y2="6" style="stroke: #000000; "></line><text x="0" y="9" dy=".71em" text-anchor="middle">8000000</text></g><g style="opacity: 1; " transform="translate(565,0)"><line class="tick" x2="0" y2="6" style="stroke: #000000; "></line><text x="0" y="9" dy=".71em" text-anchor="middle">10000000</text></g><path class="domain" d="M100,0V0H565V0" style="stroke: #000000; "></path></g><g class="y axis" transform="translate(100,0)"><g style="opacity: 1; " transform="translate(0,400)"><line class="tick" x2="-6" y2="0" style="stroke: #000000; "></line><text x="-9" y="0" dy=".32em" text-anchor="end">0</text></g><g style="opacity: 1; " transform="translate(0,300)"><line class="tick" x2="-6" y2="0" style="stroke: #000000; "></line><text x="-9" y="0" dy=".32em" text-anchor="end">20</text></g><g style="opacity: 1; " transform="translate(0,200)"><line class="tick" x2="-6" y2="0" style="stroke: #000000; "></line><text x="-9" y="0" dy=".32em" text-anchor="end">40</text></g><g style="opacity: 1; " transform="translate(0,100)"><line class="tick" x2="-6" y2="0" style="stroke: #000000; "></line><text x="-9" y="0" dy=".32em" text-anchor="end">60</text></g><path class="domain" d="M0,50H0V400H0" style="stroke: #000000; "></path></g><text transform="rotate(-90) translate(-180,60)" x="20" y="0">GDP / capita, '000$</text><text text-anchor="end" x="565" y="430">Population, millions</text><rect x="100" y="233.4329345704285" height="166.5670654295715" width="425.39785682549996" style="fill: #98c10f; opacity: 0.5; "></rect><rect x="100" y="212.483759633929" height="187.516240366071" width="175.04709663149998" style="fill: #e25c13; opacity: 0.5; "></rect><rect x="100" y="307.696564325396" height="92.30343567460397" width="190.70720913599996" style="fill: #ffd700; opacity: 0.5; "></rect><rect x="100" y="57.462236393637" height="342.537763606363" width="59.643551058000014" style="fill: #2973bd; opacity: 0.5; "></rect><path class="lcL" d="M0,0L-5,-5L-7.5,-5L-7.5,5L-5,5Z" transform="translate(98,344.106488770342)" style="fill: #98c10f; "></path><path class="lcL" d="M0,0L-5,-5L-7.5,-5L-7.5,5L-5,5Z" transform="translate(98,362.29117732147563)" style="fill: #e25c13; "></path><path class="lcL" d="M0,0L-5,-5L-7.5,-5L-7.5,5L-5,5Z" transform="translate(98,372.7076418635451)" style="fill: #ffd700; "></path><path class="lcL" d="M0,0L-5,-5L-7.5,-5L-7.5,5L-5,5Z" transform="translate(98,234.287145216291)" style="fill: #2973bd; "></path><text class="lcLt" x="90" y="349.106488770342" text-anchor="end" style="fill: #aaaaaa; ">World (2010)</text><text class="lcLt" x="90" y="367.29117732147563" text-anchor="end" style="fill: #aaaaaa; ">BRIICS (2010)</text><text class="lcLt" x="90" y="377.7076418635451" text-anchor="end" style="fill: #aaaaaa; ">RoW (2010)</text><text class="lcLt" x="90" y="239.287145216291" text-anchor="end" style="fill: #aaaaaa; ">OECD (2010)</text><path class="lcU" d="M0,0L-5,5L-5,7.5L5,7.5L5,5Z" transform="translate(421.1930669095,400)" style="fill: #98c10f; "></path><path class="lcU" d="M0,0L-5,5L-5,7.5L5,7.5L5,5Z" transform="translate(250.565234581,400)" style="fill: #e25c13; "></path><path class="lcU" d="M0,0L-5,5L-5,7.5L5,7.5L5,5Z" transform="translate(215.5916575105,400)" style="fill: #ffd700; "></path><path class="lcU" d="M0,0L-5,5L-5,7.5L5,7.5L5,5Z" transform="translate(155.036174818,400)" style="fill: #2973bd; "></path><text class="lcLt" x="426.1930669095" y="440" text-anchor="middle" style="fill: #aaaaaa; ">World</text><text class="lcLt" x="255.565234581" y="440" text-anchor="middle" style="fill: #aaaaaa; ">BRIICS</text><text class="lcLt" x="220.5916575105" y="440" text-anchor="middle" style="fill: #aaaaaa; ">RoW</text><text class="lcLt" x="160.036174818" y="440" text-anchor="middle" style="fill: #aaaaaa; ">OECD</text></svg>
