<svg width="660" height="350" version="1.1" xmlns="http://www.w3.org/2000/svg"><line class="gridlines" y1="330" y2="330" x1="50" x2="645" style="stroke: #cccccc; opacity: 0; "></line><line class="gridlines" y1="274" y2="274" x1="50" x2="645" style="stroke: #cccccc; "></line><line class="gridlines" y1="218" y2="218" x1="50" x2="645" style="stroke: #cccccc; "></line><line class="gridlines" y1="162" y2="162" x1="50" x2="645" style="stroke: #cccccc; "></line><g class="x axis" transform="translate(0,330)"><g style="opacity: 1; " transform="translate(50,0)"><line class="tick" x2="0" y2="6" style="stroke: #9ecae1; "></line><text x="0" y="9" dy=".71em" text-anchor="middle" style="fill: #9ecae1; ">2010</text></g><g style="opacity: 1; " transform="translate(198.75,0)"><line class="tick" x2="0" y2="6" style="stroke: #9ecae1; "></line><text x="0" y="9" dy=".71em" text-anchor="middle" style="fill: #9ecae1; ">2020</text></g><g style="opacity: 1; " transform="translate(347.5,0)"><line class="tick" x2="0" y2="6" style="stroke: #9ecae1; "></line><text x="0" y="9" dy=".71em" text-anchor="middle" style="fill: #9ecae1; ">2030</text></g><g style="opacity: 1; " transform="translate(496.25,0)"><line class="tick" x2="0" y2="6" style="stroke: #9ecae1; "></line><text x="0" y="9" dy=".71em" text-anchor="middle" style="fill: #9ecae1; ">2040</text></g><g style="opacity: 1; " transform="translate(645,0)"><line class="tick" x2="0" y2="6" style="stroke: #9ecae1; "></line><text x="0" y="9" dy=".71em" text-anchor="middle" style="fill: #9ecae1; ">2050</text></g><path class="domain" d="M50,0V0H645V0" style="stroke: #333333; "></path></g><g class="y axis" transform="translate(50,0)"><g style="opacity: 1; " transform="translate(0,330)"><line class="tick" x2="-6" y2="0" style="stroke: #9ecae1; "></line><text x="-9" y="0" dy=".32em" text-anchor="end" style="fill: #9ecae1; ">0.0</text></g><g style="opacity: 1; " transform="translate(0,274)"><line class="tick" x2="-6" y2="0" style="stroke: #9ecae1; "></line><text x="-9" y="0" dy=".32em" text-anchor="end" style="fill: #6fa7d3; ">0.0020</text></g><g style="opacity: 1; " transform="translate(0,218)"><line class="tick" x2="-6" y2="0" style="stroke: #9ecae1; "></line><text x="-9" y="0" dy=".32em" text-anchor="end" style="fill: #4084c4; ">0.0040</text></g><g style="opacity: 1; " transform="translate(0,162)"><line class="tick" x2="-6" y2="0" style="stroke: #9ecae1; "></line><text x="-9" y="0" dy=".32em" text-anchor="end" style="fill: #3969ae; ">0.0060</text></g><g style="opacity: 1; " transform="translate(0,106)"><line class="tick" x2="-6" y2="0" style="stroke: #9ecae1; "></line><text x="-9" y="0" dy=".32em" text-anchor="end" style="fill: #5a5591; ">0.0080</text></g><g style="opacity: 1; " transform="translate(0,50)"><line class="tick" x2="-6" y2="0" style="stroke: #9ecae1; "></line><text x="-9" y="0" dy=".32em" text-anchor="end" style="fill: #7b4173; ">0.010</text></g><path class="domain" d="M0,50H0V330H0" style="stroke: #333333; "></path></g><g class="series"><g class="lines"><line x1="50" x2="64.875" y1="151.59456018680612" y2="154.3272731705806" style="stroke: #4860a1; stroke-width: 1px; "></line><line x1="64.875" x2="79.75" y1="154.3272731705806" y2="156.98671216163447" style="stroke: #4a5fa0; stroke-width: 1px; "></line><line x1="79.75" x2="94.625" y1="156.98671216163447" y2="159.8590368166298" style="stroke: #4b5e9e; stroke-width: 1px; "></line><line x1="94.625" x2="109.5" y1="159.8590368166298" y2="162.99749832291675" style="stroke: #4c5e9d; stroke-width: 1px; "></line><line x1="109.5" x2="124.375" y1="162.99749832291675" y2="166.21443818906656" style="stroke: #4d5d9c; stroke-width: 1px; "></line><line x1="124.375" x2="139.25" y1="166.21443818906656" y2="169.62235909164323" style="stroke: #4f5c9b; stroke-width: 1px; "></line><line x1="139.25" x2="154.125" y1="169.62235909164323" y2="173.22963667061208" style="stroke: #505b9a; stroke-width: 1px; "></line><line x1="154.125" x2="169" y1="173.22963667061208" y2="176.81386968971307" style="stroke: #515a99; stroke-width: 1px; "></line><line x1="169" x2="183.875" y1="176.81386968971307" y2="180.2980237543905" style="stroke: #525a98; stroke-width: 1px; "></line><line x1="183.875" x2="198.75" y1="180.2980237543905" y2="183.68508413001" style="stroke: #545996; stroke-width: 1px; "></line><line x1="198.75" x2="213.625" y1="183.68508413001" y2="186.84609822562615" style="stroke: #555895; stroke-width: 1px; "></line><line x1="213.625" x2="228.50000000000003" y1="186.84609822562615" y2="189.9665425170852" style="stroke: #565894; stroke-width: 1px; "></line><line x1="228.50000000000003" x2="243.375" y1="189.9665425170852" y2="192.94856541904176" style="stroke: #575793; stroke-width: 1px; "></line><line x1="243.375" x2="258.25" y1="192.94856541904176" y2="196.00774374742528" style="stroke: #585692; stroke-width: 1px; "></line><line x1="258.25" x2="273.125" y1="196.00774374742528" y2="199.01448962808522" style="stroke: #595691; stroke-width: 1px; "></line><line x1="273.125" x2="288" y1="199.01448962808522" y2="201.95567053041142" style="stroke: #5a5590; stroke-width: 1px; "></line><line x1="288" x2="302.875" y1="201.95567053041142" y2="204.7925408278819" style="stroke: #5b5490; stroke-width: 1px; "></line><line x1="302.875" x2="317.75" y1="204.7925408278819" y2="207.57457455872216" style="stroke: #5c548f; stroke-width: 1px; "></line><line x1="317.75" x2="332.625" y1="207.57457455872216" y2="210.257144114536" style="stroke: #5d538e; stroke-width: 1px; "></line><line x1="332.625" x2="347.5" y1="210.257144114536" y2="212.85774146893104" style="stroke: #5e528d; stroke-width: 1px; "></line><line x1="347.5" x2="362.375" y1="212.85774146893104" y2="214.80198784214284" style="stroke: #5f528c; stroke-width: 1px; "></line><line x1="362.375" x2="377.25" y1="214.80198784214284" y2="216.76908497676337" style="stroke: #60518b; stroke-width: 1px; "></line><line x1="377.25" x2="392.12500000000006" y1="216.76908497676337" y2="218.74027479637158" style="stroke: #61518a; stroke-width: 1px; "></line><line x1="392.12500000000006" x2="407.00000000000006" y1="218.74027479637158" y2="220.6903147931506" style="stroke: #62508a; stroke-width: 1px; "></line><line x1="407.00000000000006" x2="421.875" y1="220.6903147931506" y2="222.57540452845112" style="stroke: #635089; stroke-width: 1px; "></line><line x1="421.875" x2="436.75" y1="222.57540452845112" y2="224.46456763912008" style="stroke: #644f88; stroke-width: 1px; "></line><line x1="436.75" x2="451.625" y1="224.46456763912008" y2="226.3193262577278" style="stroke: #644f87; stroke-width: 1px; "></line><line x1="451.625" x2="466.50000000000006" y1="226.3193262577278" y2="228.11681978746907" style="stroke: #654e87; stroke-width: 1px; "></line><line x1="466.50000000000006" x2="481.37500000000006" y1="228.11681978746907" y2="229.8381976172908" style="stroke: #664e86; stroke-width: 1px; "></line><line x1="481.37500000000006" x2="496.25" y1="229.8381976172908" y2="231.50107085330808" style="stroke: #674d85; stroke-width: 1px; "></line><line x1="496.25" x2="511.125" y1="231.50107085330808" y2="233.1197887231143" style="stroke: #674d85; stroke-width: 1px; "></line><line x1="511.125" x2="526" y1="233.1197887231143" y2="234.71051766879992" style="stroke: #684d84; stroke-width: 1px; "></line><line x1="526" x2="540.875" y1="234.71051766879992" y2="236.2574788395062" style="stroke: #694c84; stroke-width: 1px; "></line><line x1="540.875" x2="555.75" y1="236.2574788395062" y2="237.77304220679565" style="stroke: #694c83; stroke-width: 1px; "></line><line x1="555.75" x2="570.625" y1="237.77304220679565" y2="239.23821089757948" style="stroke: #6a4b82; stroke-width: 1px; "></line><line x1="570.625" x2="585.5" y1="239.23821089757948" y2="240.69106382665723" style="stroke: #6b4b82; stroke-width: 1px; "></line><line x1="585.5" x2="600.375" y1="240.69106382665723" y2="242.1120796750425" style="stroke: #6b4b81; stroke-width: 1px; "></line><line x1="600.375" x2="615.25" y1="242.1120796750425" y2="243.53475918349187" style="stroke: #6c4a81; stroke-width: 1px; "></line><line x1="615.25" x2="630.125" y1="243.53475918349187" y2="244.93162195913476" style="stroke: #6c4a80; stroke-width: 1px; "></line><line x1="630.125" x2="645" y1="244.93162195913476" y2="246.2899784693148" style="stroke: #6d4a80; stroke-width: 1px; "></line></g><g class="circles"><circle cx="50" cy="151.59456018680612" style="stroke: #ffffff; stroke-width: 0px; fill: #3f65a9; " r="4" class="circle c0"><title>undefined: 0.0</title></circle><circle cx="64.875" cy="154.3272731705806" style="stroke: #ffffff; stroke-width: 0px; fill: #3e66aa; " r="4" class="circle c1"><title>undefined: 0.0</title></circle><circle cx="79.75" cy="156.98671216163447" style="stroke: #ffffff; stroke-width: 0px; fill: #3c67ac; " r="4" class="circle c2"><title>undefined: 0.0</title></circle><circle cx="94.625" cy="159.8590368166298" style="stroke: #ffffff; stroke-width: 0px; fill: #3b68ad; " r="4" class="circle c3"><title>undefined: 0.0</title></circle><circle cx="109.5" cy="162.99749832291675" style="stroke: #ffffff; stroke-width: 0px; fill: #3969af; " r="4" class="circle c4"><title>undefined: 0.0</title></circle><circle cx="124.375" cy="166.21443818906656" style="stroke: #ffffff; stroke-width: 0px; fill: #376bb0; " r="4" class="circle c5"><title>undefined: 0.0</title></circle><circle cx="139.25" cy="169.62235909164323" style="stroke: #ffffff; stroke-width: 0px; fill: #356cb2; " r="4" class="circle c6"><title>undefined: 0.0</title></circle><circle cx="154.125" cy="173.22963667061208" style="stroke: #ffffff; stroke-width: 0px; fill: #336db4; " r="4" class="circle c7"><title>undefined: 0.0</title></circle><circle cx="169" cy="176.81386968971307" style="stroke: #ffffff; stroke-width: 0px; fill: #316eb6; " r="4" class="circle c8"><title>undefined: 0.0</title></circle><circle cx="183.875" cy="180.2980237543905" style="stroke: #ffffff; stroke-width: 0px; fill: #2f70b8; " r="4" class="circle c9"><title>undefined: 0.0</title></circle><circle cx="198.75" cy="183.68508413001" style="stroke: #ffffff; stroke-width: 0px; fill: #2d71ba; " r="4" class="circle c10"><title>undefined: 0.0</title></circle><circle cx="213.625" cy="186.84609822562615" style="stroke: #ffffff; stroke-width: 0px; fill: #2b72bb; " r="4" class="circle c11"><title>undefined: 0.0</title></circle><circle cx="228.50000000000003" cy="189.9665425170852" style="stroke: #ffffff; stroke-width: 0px; fill: #2973bd; " r="4" class="circle c12"><title>undefined: 0.0</title></circle><circle cx="243.375" cy="192.94856541904176" style="stroke: #ffffff; stroke-width: 0px; fill: #2b75be; " r="4" class="circle c13" original-title=""><title>undefined: 0.0</title></circle><circle cx="258.25" cy="196.00774374742528" style="stroke: #ffffff; stroke-width: 0px; fill: #2e77bf; " r="4" class="circle c14"><title>undefined: 0.0</title></circle><circle cx="273.125" cy="199.01448962808522" style="stroke: #ffffff; stroke-width: 0px; fill: #3179bf; " r="4" class="circle c15"><title>undefined: 0.0</title></circle><circle cx="288" cy="201.95567053041142" style="stroke: #ffffff; stroke-width: 0px; fill: #337ac0; " r="4" class="circle c16"><title>undefined: 0.0</title></circle><circle cx="302.875" cy="204.7925408278819" style="stroke: #ffffff; stroke-width: 0px; fill: #357cc1; " r="4" class="circle c17"><title>undefined: 0.0</title></circle><circle cx="317.75" cy="207.57457455872216" style="stroke: #ffffff; stroke-width: 0px; fill: #387ec2; " r="4" class="circle c18"><title>undefined: 0.0</title></circle><circle cx="332.625" cy="210.257144114536" style="stroke: #ffffff; stroke-width: 0px; fill: #3a80c2; " r="4" class="circle c19"><title>undefined: 0.0</title></circle><circle cx="347.5" cy="212.85774146893104" style="stroke: #ffffff; stroke-width: 0px; fill: #3c81c3; " r="4" class="circle c20"><title>undefined: 0.0</title></circle><circle cx="362.375" cy="214.80198784214284" style="stroke: #ffffff; stroke-width: 0px; fill: #3e82c3; " r="4" class="circle c21"><title>undefined: 0.0</title></circle><circle cx="377.25" cy="216.76908497676337" style="stroke: #ffffff; stroke-width: 0px; fill: #3f84c4; " r="4" class="circle c22"><title>undefined: 0.0</title></circle><circle cx="392.12500000000006" cy="218.74027479637158" style="stroke: #ffffff; stroke-width: 0px; fill: #4185c4; " r="4" class="circle c23"><title>undefined: 0.0</title></circle><circle cx="407.00000000000006" cy="220.6903147931506" style="stroke: #ffffff; stroke-width: 0px; fill: #4386c5; " r="4" class="circle c24"><title>undefined: 0.0</title></circle><circle cx="421.875" cy="222.57540452845112" style="stroke: #ffffff; stroke-width: 0px; fill: #4487c5; " r="4" class="circle c25"><title>undefined: 0.0</title></circle><circle cx="436.75" cy="224.46456763912008" style="stroke: #ffffff; stroke-width: 0px; fill: #4688c6; " r="4" class="circle c26"><title>undefined: 0.0</title></circle><circle cx="451.625" cy="226.3193262577278" style="stroke: #ffffff; stroke-width: 0px; fill: #478ac6; " r="4" class="circle c27"><title>undefined: 0.0</title></circle><circle cx="466.50000000000006" cy="228.11681978746907" style="stroke: #ffffff; stroke-width: 0px; fill: #498bc7; " r="4" class="circle c28"><title>undefined: 0.0</title></circle><circle cx="481.37500000000006" cy="229.8381976172908" style="stroke: #ffffff; stroke-width: 0px; fill: #4a8cc7; " r="4" class="circle c29"><title>undefined: 0.0</title></circle><circle cx="496.25" cy="231.50107085330808" style="stroke: #ffffff; stroke-width: 0px; fill: #4c8dc8; " r="4" class="circle c30"><title>undefined: 0.0</title></circle><circle cx="511.125" cy="233.1197887231143" style="stroke: #ffffff; stroke-width: 0px; fill: #4d8ec8; " r="4" class="circle c31"><title>undefined: 0.0</title></circle><circle cx="526" cy="234.71051766879992" style="stroke: #ffffff; stroke-width: 0px; fill: #4e8fc8; " r="4" class="circle c32"><title>undefined: 0.0</title></circle><circle cx="540.875" cy="236.2574788395062" style="stroke: #ffffff; stroke-width: 0px; fill: #5090c9; " r="4" class="circle c33"><title>undefined: 0.0</title></circle><circle cx="555.75" cy="237.77304220679565" style="stroke: #ffffff; stroke-width: 0px; fill: #5191c9; " r="4" class="circle c34"><title>undefined: 0.0</title></circle><circle cx="570.625" cy="239.23821089757948" style="stroke: #ffffff; stroke-width: 0px; fill: #5292ca; " r="4" class="circle c35"><title>undefined: 0.0</title></circle><circle cx="585.5" cy="240.69106382665723" style="stroke: #ffffff; stroke-width: 0px; fill: #5393ca; " r="4" class="circle c36"><title>undefined: 0.0</title></circle><circle cx="600.375" cy="242.1120796750425" style="stroke: #ffffff; stroke-width: 0px; fill: #5593ca; " r="4" class="circle c37"><title>undefined: 0.0</title></circle><circle cx="615.25" cy="243.53475918349187" style="stroke: #ffffff; stroke-width: 0px; fill: #5694cb; " r="4" class="circle c38"><title>undefined: 0.0</title></circle><circle cx="630.125" cy="244.93162195913476" style="stroke: #ffffff; stroke-width: 0px; fill: #5795cb; " r="4" class="circle c39"><title>undefined: 0.0</title></circle><circle cx="645" cy="246.2899784693148" style="stroke: #ffffff; stroke-width: 0px; fill: #5896cb; " r="4" class="circle c40"><title>undefined: 0.0</title></circle></g></g><line class="gridlines" y1="106" y2="106" x1="50" x2="645" style="stroke: #cccccc; "></line><line class="gridlines" y1="50" y2="50" x1="50" x2="645" style="stroke: #cccccc; "></line></svg>