<svg width="660" height="350" version="1.1" xmlns="http://www.w3.org/2000/svg"><line class="gridlines" y1="330" y2="330" x1="50" x2="645" style="stroke: #cccccc; "></line><line class="gridlines" y1="274" y2="274" x1="50" x2="645" style="stroke: #cccccc; "></line><line class="gridlines" y1="218" y2="218" x1="50" x2="645" style="stroke: #cccccc; "></line><line class="gridlines" y1="162" y2="162" x1="50" x2="645" style="stroke: #cccccc; "></line><line class="gridlines" y1="106" y2="106" x1="50" x2="645" style="stroke: #cccccc; "></line><line class="gridlines" y1="50" y2="50" x1="50" x2="645" style="stroke: #cccccc; "></line><g class="x axis" transform="translate(0,330)"><g style="opacity: 1; " transform="translate(50,0)"><line class="tick" x2="0" y2="6" style="stroke: #9ecae1; "></line><text x="0" y="9" dy=".71em" text-anchor="middle" style="fill: #9ecae1; ">2010</text></g><g style="opacity: 1; " transform="translate(198.75,0)"><line class="tick" x2="0" y2="6" style="stroke: #9ecae1; "></line><text x="0" y="9" dy=".71em" text-anchor="middle" style="fill: #9ecae1; ">2020</text></g><g style="opacity: 1; " transform="translate(347.5,0)"><line class="tick" x2="0" y2="6" style="stroke: #9ecae1; "></line><text x="0" y="9" dy=".71em" text-anchor="middle" style="fill: #9ecae1; ">2030</text></g><g style="opacity: 1; " transform="translate(496.25,0)"><line class="tick" x2="0" y2="6" style="stroke: #9ecae1; "></line><text x="0" y="9" dy=".71em" text-anchor="middle" style="fill: #9ecae1; ">2040</text></g><g style="opacity: 1; " transform="translate(645,0)"><line class="tick" x2="0" y2="6" style="stroke: #9ecae1; "></line><text x="0" y="9" dy=".71em" text-anchor="middle" style="fill: #9ecae1; ">2050</text></g><path class="domain" d="M50,0V0H645V0" style="stroke: #333333; "></path></g><g class="y axis" transform="translate(50,0)"><g style="opacity: 1; " transform="translate(0,330)"><line class="tick" x2="-6" y2="0" style="stroke: #9ecae1; "></line><text x="-9" y="0" dy=".32em" text-anchor="end" style="fill: #9ecae1; ">0</text></g><g style="opacity: 1; " transform="translate(0,274)"><line class="tick" x2="-6" y2="0" style="stroke: #9ecae1; "></line><text x="-9" y="0" dy=".32em" text-anchor="end" style="fill: #6fa7d3; ">2000</text></g><g style="opacity: 1; " transform="translate(0,218)"><line class="tick" x2="-6" y2="0" style="stroke: #9ecae1; "></line><text x="-9" y="0" dy=".32em" text-anchor="end" style="fill: #4084c4; ">4000</text></g><g style="opacity: 1; " transform="translate(0,162)"><line class="tick" x2="-6" y2="0" style="stroke: #9ecae1; "></line><text x="-9" y="0" dy=".32em" text-anchor="end" style="fill: #3969ae; ">6000</text></g><g style="opacity: 1; " transform="translate(0,106)"><line class="tick" x2="-6" y2="0" style="stroke: #9ecae1; "></line><text x="-9" y="0" dy=".32em" text-anchor="end" style="fill: #5a5591; ">8000</text></g><g style="opacity: 1; " transform="translate(0,50)"><line class="tick" x2="-6" y2="0" style="stroke: #9ecae1; "></line><text x="-9" y="0" dy=".32em" text-anchor="end" style="fill: #7b4173; ">10000</text></g><path class="domain" d="M0,50H0V330H0" style="stroke: #333333; "></path></g><g class="series"><g class="lines"><line x1="50" x2="64.875" y1="136.593422076" y2="134.37242343599996" style="stroke: #4860a1; stroke-width: 1px; "></line><line x1="64.875" x2="79.75" y1="134.37242343599996" y2="132.15423020000026" style="stroke: #4a5fa0; stroke-width: 1px; "></line><line x1="79.75" x2="94.625" y1="132.15423020000026" y2="129.944377352" style="stroke: #4b5e9e; stroke-width: 1px; "></line><line x1="94.625" x2="109.5" y1="129.944377352" y2="127.74996390000055" style="stroke: #4c5e9d; stroke-width: 1px; "></line><line x1="109.5" x2="124.375" y1="127.74996390000055" y2="125.57709056799999" style="stroke: #4d5d9c; stroke-width: 1px; "></line><line x1="124.375" x2="139.25" y1="125.57709056799999" y2="123.42854357999997" style="stroke: #4f5c9b; stroke-width: 1px; "></line><line x1="139.25" x2="154.125" y1="123.42854357999997" y2="121.306420304" style="stroke: #505b9a; stroke-width: 1px; "></line><line x1="154.125" x2="169" y1="121.306420304" y2="119.21529773199998" style="stroke: #515a99; stroke-width: 1px; "></line><line x1="169" x2="183.875" y1="119.21529773199998" y2="117.16004374799999" style="stroke: #525a98; stroke-width: 1px; "></line><line x1="183.875" x2="198.75" y1="117.16004374799999" y2="115.144579948" style="stroke: #545996; stroke-width: 1px; "></line><line x1="198.75" x2="213.625" y1="115.144579948" y2="113.17144223600002" style="stroke: #555895; stroke-width: 1px; "></line><line x1="213.625" x2="228.50000000000003" y1="113.17144223600002" y2="111.24184684800028" style="stroke: #565894; stroke-width: 1px; "></line><line x1="228.50000000000003" x2="243.375" y1="111.24184684800028" y2="109.3565149799997" style="stroke: #575793; stroke-width: 1px; "></line><line x1="243.375" x2="258.25" y1="109.3565149799997" y2="107.51542274799999" style="stroke: #585692; stroke-width: 1px; "></line><line x1="258.25" x2="273.125" y1="107.51542274799999" y2="105.71845577199974" style="stroke: #595691; stroke-width: 1px; "></line><line x1="273.125" x2="288" y1="105.71845577199974" y2="103.96627558" style="stroke: #5a5590; stroke-width: 1px; "></line><line x1="288" x2="302.875" y1="103.96627558" y2="102.25914842399999" style="stroke: #5b5490; stroke-width: 1px; "></line><line x1="302.875" x2="317.75" y1="102.25914842399999" y2="100.59584404000003" style="stroke: #5c548f; stroke-width: 1px; "></line><line x1="317.75" x2="332.625" y1="100.59584404000003" y2="98.97453035999973" style="stroke: #5d538e; stroke-width: 1px; "></line><line x1="332.625" x2="347.5" y1="98.97453035999973" y2="97.39361597600029" style="stroke: #5e528d; stroke-width: 1px; "></line><line x1="347.5" x2="362.375" y1="97.39361597600029" y2="95.85305656399996" style="stroke: #5f528c; stroke-width: 1px; "></line><line x1="362.375" x2="377.25" y1="95.85305656399996" y2="94.35253104799997" style="stroke: #60518b; stroke-width: 1px; "></line><line x1="377.25" x2="392.12500000000006" y1="94.35253104799997" y2="92.88982661600002" style="stroke: #61518a; stroke-width: 1px; "></line><line x1="392.12500000000006" x2="407.00000000000006" y1="92.88982661600002" y2="91.46221853200001" style="stroke: #62508a; stroke-width: 1px; "></line><line x1="407.00000000000006" x2="421.875" y1="91.46221853200001" y2="90.06785703199998" style="stroke: #635089; stroke-width: 1px; "></line><line x1="421.875" x2="436.75" y1="90.06785703199998" y2="88.70612384800029" style="stroke: #644f88; stroke-width: 1px; "></line><line x1="436.75" x2="451.625" y1="88.70612384800029" y2="87.37783030800003" style="stroke: #644f87; stroke-width: 1px; "></line><line x1="451.625" x2="466.50000000000006" y1="87.37783030800003" y2="86.08446629200029" style="stroke: #654e87; stroke-width: 1px; "></line><line x1="466.50000000000006" x2="481.37500000000006" y1="86.08446629200029" y2="84.828276644" style="stroke: #664e86; stroke-width: 1px; "></line><line x1="481.37500000000006" x2="496.25" y1="84.828276644" y2="83.61122749599994" style="stroke: #674d85; stroke-width: 1px; "></line><line x1="496.25" x2="511.125" y1="83.61122749599994" y2="82.43464184799996" style="stroke: #674d85; stroke-width: 1px; "></line><line x1="511.125" x2="526" y1="82.43464184799996" y2="81.2993293480003" style="stroke: #684d84; stroke-width: 1px; "></line><line x1="526" x2="540.875" y1="81.2993293480003" y2="80.205878668" style="stroke: #694c84; stroke-width: 1px; "></line><line x1="540.875" x2="555.75" y1="80.205878668" y2="79.15499325200025" style="stroke: #694c83; stroke-width: 1px; "></line><line x1="555.75" x2="570.625" y1="79.15499325200025" y2="78.14780250800024" style="stroke: #6a4b82; stroke-width: 1px; "></line><line x1="570.625" x2="585.5" y1="78.14780250800024" y2="77.18596851599997" style="stroke: #6b4b82; stroke-width: 1px; "></line><line x1="585.5" x2="600.375" y1="77.18596851599997" y2="76.27174715199999" style="stroke: #6b4b81; stroke-width: 1px; "></line><line x1="600.375" x2="615.25" y1="76.27174715199999" y2="75.4080097320003" style="stroke: #6c4a81; stroke-width: 1px; "></line><line x1="615.25" x2="630.125" y1="75.4080097320003" y2="74.59822512" style="stroke: #6c4a80; stroke-width: 1px; "></line><line x1="630.125" x2="645" y1="74.59822512" y2="73.84645180399997" style="stroke: #6d4a80; stroke-width: 1px; "></line></g><g class="circles"><circle cx="50" cy="136.593422076" style="stroke: #ffffff; stroke-width: 0px; fill: #4860a1; " r="4" class="circle c0"><title>2010: 6907.4</title></circle><circle cx="64.875" cy="134.37242343599996" style="stroke: #ffffff; stroke-width: 0px; fill: #4860a1; " r="4" class="circle c1"><title>2011: 6986.7</title></circle><circle cx="79.75" cy="132.15423020000026" style="stroke: #ffffff; stroke-width: 0px; fill: #4a5fa0; " r="4" class="circle c2"><title>2012: 7065.9</title></circle><circle cx="94.625" cy="129.944377352" style="stroke: #ffffff; stroke-width: 0px; fill: #4b5e9e; " r="4" class="circle c3"><title>2013: 7144.8</title></circle><circle cx="109.5" cy="127.74996390000055" style="stroke: #ffffff; stroke-width: 0px; fill: #4c5e9d; " r="4" class="circle c4"><title>2014: 7223.2</title></circle><circle cx="124.375" cy="125.57709056799999" style="stroke: #ffffff; stroke-width: 0px; fill: #4d5d9c; " r="4" class="circle c5"><title>2015: 7300.8</title></circle><circle cx="139.25" cy="123.42854357999997" style="stroke: #ffffff; stroke-width: 0px; fill: #4f5c9b; " r="4" class="circle c6"><title>2016: 7377.6</title></circle><circle cx="154.125" cy="121.306420304" style="stroke: #ffffff; stroke-width: 0px; fill: #505b9a; " r="4" class="circle c7"><title>2017: 7453.3</title></circle><circle cx="169" cy="119.21529773199998" style="stroke: #ffffff; stroke-width: 0px; fill: #515a99; " r="4" class="circle c8"><title>2018: 7528.0</title></circle><circle cx="183.875" cy="117.16004374799999" style="stroke: #ffffff; stroke-width: 0px; fill: #525a98; " r="4" class="circle c9"><title>2019: 7601.4</title></circle><circle cx="198.75" cy="115.144579948" style="stroke: #ffffff; stroke-width: 0px; fill: #545996; " r="4" class="circle c10"><title>2020: 7673.4</title></circle><circle cx="213.625" cy="113.17144223600002" style="stroke: #ffffff; stroke-width: 0px; fill: #555895; " r="4" class="circle c11"><title>2021: 7743.9</title></circle><circle cx="228.50000000000003" cy="111.24184684800028" style="stroke: #ffffff; stroke-width: 0px; fill: #565894; " r="4" class="circle c12"><title>2022: 7812.8</title></circle><circle cx="243.375" cy="109.3565149799997" style="stroke: #ffffff; stroke-width: 0px; fill: #575793; " r="4" class="circle c13"><title>2023: 7880.1</title></circle><circle cx="258.25" cy="107.51542274799999" style="stroke: #ffffff; stroke-width: 0px; fill: #585692; " r="4" class="circle c14"><title>2024: 7945.9</title></circle><circle cx="273.125" cy="105.71845577199974" style="stroke: #ffffff; stroke-width: 0px; fill: #595691; " r="4" class="circle c15"><title>2025: 8010.1</title></circle><circle cx="288" cy="103.96627558" style="stroke: #ffffff; stroke-width: 0px; fill: #5a5590; " r="4" class="circle c16"><title>2026: 8072.6</title></circle><circle cx="302.875" cy="102.25914842399999" style="stroke: #ffffff; stroke-width: 0px; fill: #5b5490; " r="4" class="circle c17"><title>2027: 8133.6</title></circle><circle cx="317.75" cy="100.59584404000003" style="stroke: #ffffff; stroke-width: 0px; fill: #5c548f; " r="4" class="circle c18"><title>2028: 8193.0</title></circle><circle cx="332.625" cy="98.97453035999973" style="stroke: #ffffff; stroke-width: 0px; fill: #5d538e; " r="4" class="circle c19"><title>2029: 8250.9</title></circle><circle cx="347.5" cy="97.39361597600029" style="stroke: #ffffff; stroke-width: 0px; fill: #5e528d; " r="4" class="circle c20"><title>2030: 8307.4</title></circle><circle cx="362.375" cy="95.85305656399996" style="stroke: #ffffff; stroke-width: 0px; fill: #5f528c; " r="4" class="circle c21"><title>2031: 8362.4</title></circle><circle cx="377.25" cy="94.35253104799997" style="stroke: #ffffff; stroke-width: 0px; fill: #60518b; " r="4" class="circle c22"><title>2032: 8416.0</title></circle><circle cx="392.12500000000006" cy="92.88982661600002" style="stroke: #ffffff; stroke-width: 0px; fill: #61518a; " r="4" class="circle c23"><title>2033: 8468.2</title></circle><circle cx="407.00000000000006" cy="91.46221853200001" style="stroke: #ffffff; stroke-width: 0px; fill: #62508a; " r="4" class="circle c24"><title>2034: 8519.2</title></circle><circle cx="421.875" cy="90.06785703199998" style="stroke: #ffffff; stroke-width: 0px; fill: #635089; " r="4" class="circle c25"><title>2035: 8569.0</title></circle><circle cx="436.75" cy="88.70612384800029" style="stroke: #ffffff; stroke-width: 0px; fill: #644f88; " r="4" class="circle c26"><title>2036: 8617.6</title></circle><circle cx="451.625" cy="87.37783030800003" style="stroke: #ffffff; stroke-width: 0px; fill: #644f87; " r="4" class="circle c27"><title>2037: 8665.1</title></circle><circle cx="466.50000000000006" cy="86.08446629200029" style="stroke: #ffffff; stroke-width: 0px; fill: #654e87; " r="4" class="circle c28"><title>2038: 8711.3</title></circle><circle cx="481.37500000000006" cy="84.828276644" style="stroke: #ffffff; stroke-width: 0px; fill: #664e86; " r="4" class="circle c29"><title>2039: 8756.1</title></circle><circle cx="496.25" cy="83.61122749599994" style="stroke: #ffffff; stroke-width: 0px; fill: #674d85; " r="4" class="circle c30"><title>2040: 8799.6</title></circle><circle cx="511.125" cy="82.43464184799996" style="stroke: #ffffff; stroke-width: 0px; fill: #674d85; " r="4" class="circle c31"><title>2041: 8841.6</title></circle><circle cx="526" cy="81.2993293480003" style="stroke: #ffffff; stroke-width: 0px; fill: #684d84; " r="4" class="circle c32"><title>2042: 8882.2</title></circle><circle cx="540.875" cy="80.205878668" style="stroke: #ffffff; stroke-width: 0px; fill: #694c84; " r="4" class="circle c33"><title>2043: 8921.2</title></circle><circle cx="555.75" cy="79.15499325200025" style="stroke: #ffffff; stroke-width: 0px; fill: #694c83; " r="4" class="circle c34"><title>2044: 8958.8</title></circle><circle cx="570.625" cy="78.14780250800024" style="stroke: #ffffff; stroke-width: 0px; fill: #6a4b82; " r="4" class="circle c35"><title>2045: 8994.7</title></circle><circle cx="585.5" cy="77.18596851599997" style="stroke: #ffffff; stroke-width: 0px; fill: #6b4b82; " r="4" class="circle c36"><title>2046: 9029.1</title></circle><circle cx="600.375" cy="76.27174715199999" style="stroke: #ffffff; stroke-width: 0px; fill: #6b4b81; " r="4" class="circle c37"><title>2047: 9061.7</title></circle><circle cx="615.25" cy="75.4080097320003" style="stroke: #ffffff; stroke-width: 0px; fill: #6c4a81; " r="4" class="circle c38"><title>2048: 9092.6</title></circle><circle cx="630.125" cy="74.59822512" style="stroke: #ffffff; stroke-width: 0px; fill: #6c4a80; " r="4" class="circle c39"><title>2049: 9121.5</title></circle><circle cx="645" cy="73.84645180399997" style="stroke: #ffffff; stroke-width: 0px; fill: #6d4a80; " r="4" class="circle c40"><title>2050: 9148.3</title></circle></g></g></svg>