<svg width="600" height="400" version="1.1" xmlns="http://www.w3.org/2000/svg"><text x="-250" y="50" transform="rotate(-90)">Terrestrial MSA, %</text><g class="bar" transform="translate(100,0)"><rect y="49.999999999983004" height="0" width="100" style="fill: #d2b48c; stroke: #ffffff; " class="c0"></rect><rect y="78.6855736590037" height="7.58309822043612" width="100" style="fill: #d2b48c; stroke: #ffffff; " class="c1"></rect><rect y="86.26867187943986" height="1.93018823590641" width="100" style="fill: #d2b48c; stroke: #ffffff; " class="c2"></rect><rect y="88.19886011534624" height="1.638167434257324" width="100" style="fill: #d2b48c; stroke: #ffffff; " class="c3"></rect><rect y="89.83702754960353" height="8.537272188930359" width="100" style="fill: #d2b48c; stroke: #ffffff; " class="c4"></rect><rect y="98.37429973853389" height="49.0519067689734" width="100" style="fill: #d2b48c; stroke: #ffffff; " class="c5"></rect><rect y="147.4262065075073" height="202.5737934924927" width="100" style="fill: #228b22; stroke: #ffffff; " class="c6"></rect><text class="year" y="370" x="50" text-anchor="middle">2010</text><text class="percentage" y="68.6855736590037" x="50" text-anchor="middle">90%</text></g><g class="bar" transform="translate(300,0)"><rect y="49.999999999988006" height="0" width="100" style="fill: #d2b48c; stroke: #ffffff; " class="c0"></rect><rect y="81.22514575770623" height="11.990372846670299" width="100" style="fill: #d2b48c; stroke: #ffffff; " class="c1"></rect><rect y="93.21551860437654" height="2.132747446730964" width="100" style="fill: #d2b48c; stroke: #ffffff; " class="c2"></rect><rect y="95.34826605110774" height="3.17651567156496" width="100" style="fill: #d2b48c; stroke: #ffffff; " class="c3"></rect><rect y="98.52478172267269" height="10.51977058150593" width="100" style="fill: #d2b48c; stroke: #ffffff; " class="c4"></rect><rect y="109.04455230417858" height="51.8579384628636" width="100" style="fill: #d2b48c; stroke: #ffffff; " class="c5"></rect><rect y="160.9024907670422" height="189.0975092329578" width="100" style="fill: #228b22; stroke: #ffffff; " class="c6"></rect><text class="year" y="370" x="50" text-anchor="middle">2030</text><text class="percentage" y="71.22514575770646" x="50" text-anchor="middle">90%</text></g><g class="bar" transform="translate(500,0)"><rect y="49.99999999998562" height="0" width="100" style="fill: #d2b48c; stroke: #ffffff; " class="c0"></rect><rect y="82.5495561503555" height="16.47452955219093" width="100" style="fill: #d2b48c; stroke: #ffffff; " class="c1"></rect><rect y="99.02408570254624" height="2.306740230574047" width="100" style="fill: #d2b48c; stroke: #ffffff; " class="c2"></rect><rect y="101.33082593312028" height="4.411619183888701" width="100" style="fill: #d2b48c; stroke: #ffffff; " class="c3"></rect><rect y="105.74244511700911" height="13.53418935464775" width="100" style="fill: #d2b48c; stroke: #ffffff; " class="c4"></rect><rect y="119.2766344716569" height="49.4079891043086" width="100" style="fill: #d2b48c; stroke: #ffffff; " class="c5"></rect><rect y="168.6846235759655" height="181.3153764240345" width="100" style="fill: #228b22; stroke: #ffffff; " class="c6"></rect><text class="year" y="370" x="50" text-anchor="middle">2050</text><text class="percentage" y="72.5495561503555" x="50" text-anchor="middle">89%</text></g></svg>