<svg width="600" height="400" version="1.1" xmlns="http://www.w3.org/2000/svg"><g class="x axis" transform="translate(0,380)"><g style="opacity: 1; " transform="translate(50,0)"><line class="tick" x2="0" y2="6" style="stroke: #000000; "></line><text x="0" y="9" dy=".71em" text-anchor="middle">2010</text></g><g style="opacity: 1; " transform="translate(135,0)"><line class="tick" x2="0" y2="6" style="stroke: #000000; "></line><text x="0" y="9" dy=".71em" text-anchor="middle">2020</text></g><g style="opacity: 1; " transform="translate(220,0)"><line class="tick" x2="0" y2="6" style="stroke: #000000; "></line><text x="0" y="9" dy=".71em" text-anchor="middle">2030</text></g><g style="opacity: 1; " transform="translate(305,0)"><line class="tick" x2="0" y2="6" style="stroke: #000000; "></line><text x="0" y="9" dy=".71em" text-anchor="middle">2040</text></g><g style="opacity: 1; " transform="translate(390,0)"><line class="tick" x2="0" y2="6" style="stroke: #000000; "></line><text x="0" y="9" dy=".71em" text-anchor="middle">2050</text></g><path class="domain" d="M50,0V0H390V0" style="stroke: #000000; "></path></g><g class="y axis" transform="translate(50,0)"><g style="opacity: 1; " transform="translate(0,380)"><line class="tick" x2="-6" y2="0" style="stroke: #000000; "></line><text x="-9" y="0" dy=".32em" text-anchor="end">0</text></g><g style="opacity: 1; " transform="translate(0,292.5)"><line class="tick" x2="-6" y2="0" style="stroke: #000000; "></line><text x="-9" y="0" dy=".32em" text-anchor="end">50</text></g><g style="opacity: 1; " transform="translate(0,205)"><line class="tick" x2="-6" y2="0" style="stroke: #000000; "></line><text x="-9" y="0" dy=".32em" text-anchor="end">100</text></g><g style="opacity: 1; " transform="translate(0,117.5)"><line class="tick" x2="-6" y2="0" style="stroke: #000000; "></line><text x="-9" y="0" dy=".32em" text-anchor="end">150</text></g><g style="opacity: 1; " transform="translate(0,30)"><line class="tick" x2="-6" y2="0" style="stroke: #000000; "></line><text x="-9" y="0" dy=".32em" text-anchor="end">200</text></g><path class="domain" d="M0,30H0V380H0" style="stroke: #000000; "></path></g><text transform="rotate(-90) translate(-100,20)" x="20" y="0">µg/m³</text><line style="stroke: #ff0000; stroke-dasharray: 4px, 4px; " x1="50" x2="390" y1="345" y2="345"></line><text x="400" y="345">WHO air quality</text><text x="400" y="345" dy="1em">guideline (20 µg/m³)</text><g class="series" id="g7"><g class="lines"><line x1="50" x2="220" y1="311.64724" y2="319.15719" style="stroke: #fdd0a2; stroke-width: 2px; "></line><line x1="220" x2="390" y1="319.15719" y2="322.027505" style="stroke: #fdd0a2; stroke-width: 2px; "></line></g><g class="circles"><circle cx="50" cy="311.64724" style="fill: #fdd0a2; " r="3" class="circle c70"><title>39.1</title></circle><circle cx="220" cy="319.15719" style="fill: #fdd0a2; " r="5" class="circle c7-0"><title>34.8</title></circle><circle cx="390" cy="322.027505" style="fill: #fdd0a2; " r="5" class="circle c7-1"><title>33.1</title></circle></g><rect class="labelR" x="400" y="307.027505" width="47" height="20" style="fill: #ffffff; stroke: #fdd0a2; "></rect><text class="labelText" x="405" y="322.027505">OECD</text></g><g class="series" id="g2"><g class="lines"><line x1="50" x2="220" y1="169.966575" y2="146.82335" style="stroke: #9ecae1; stroke-width: 2px; "></line><line x1="220" x2="390" y1="146.82335" y2="125.376225" style="stroke: #9ecae1; stroke-width: 2px; "></line></g><g class="circles"><circle cx="50" cy="169.966575" style="fill: #9ecae1; " r="3" class="circle c20"><title>120.0</title></circle><circle cx="220" cy="146.82335" style="fill: #9ecae1; " r="5" class="circle c2-0"><title>133.2</title></circle><circle cx="390" cy="125.376225" style="fill: #9ecae1; " r="5" class="circle c2-1"><title>145.5</title></circle></g><rect class="labelR" x="400" y="110.376225" width="37" height="20" style="fill: #ffffff; stroke: #9ecae1; "></rect><text class="labelText" x="405" y="125.376225">India</text></g><g class="series" id="g4"><g class="lines"><line x1="50" x2="220" y1="160.21155" y2="160.4821" style="stroke: #e6550d; stroke-width: 2px; "></line><line x1="220" x2="390" y1="160.4821" y2="178.18947500000002" style="stroke: #e6550d; stroke-width: 2px; "></line></g><g class="circles"><circle cx="50" cy="160.21155" style="fill: #e6550d; " r="3" class="circle c40"><title>125.6</title></circle><circle cx="220" cy="160.4821" style="fill: #e6550d; " r="5" class="circle c4-0"><title>125.4</title></circle><circle cx="390" cy="178.18947500000002" style="fill: #e6550d; " r="5" class="circle c4-1"><title>115.3</title></circle></g><rect class="labelR" x="400" y="163.18947500000002" width="43" height="20" style="fill: #ffffff; stroke: #e6550d; "></rect><text class="labelText" x="405" y="178.18947500000002">China</text></g><g class="series" id="g5"><g class="lines"><line x1="50" x2="220" y1="218.89866735825677" y2="212.3995956155798" style="stroke: #fd8d3c; stroke-width: 2px; "></line><line x1="220" x2="390" y1="212.3995956155798" y2="198.79709046269474" style="stroke: #fd8d3c; stroke-width: 2px; "></line></g><g class="circles"><circle cx="50" cy="218.89866735825677" style="fill: #fd8d3c; " r="3" class="circle c50"><title>92.1</title></circle><circle cx="220" cy="212.3995956155798" style="fill: #fd8d3c; " r="5" class="circle c5-0"><title>95.8</title></circle><circle cx="390" cy="198.79709046269474" style="fill: #fd8d3c; " r="5" class="circle c5-1"><title>103.5</title></circle></g><rect class="labelR" x="400" y="183.79709046269474" width="43" height="20" style="fill: #ffffff; stroke: #fd8d3c; "></rect><text class="labelText" x="405" y="198.79709046269474">Africa</text></g><g class="series" id="g6"><g class="lines"><line x1="50" x2="220" y1="131.33585000000002" y2="84.60402499999998" style="stroke: #fdae6b; stroke-width: 2px; "></line><line x1="220" x2="390" y1="84.60402499999998" y2="41.72272499999997" style="stroke: #fdae6b; stroke-width: 2px; "></line></g><g class="circles"><circle cx="50" cy="131.33585000000002" style="fill: #fdae6b; " r="3" class="circle c60"><title>142.1</title></circle><circle cx="220" cy="84.60402499999998" style="fill: #fdae6b; " r="5" class="circle c6-0"><title>168.8</title></circle><circle cx="390" cy="41.72272499999997" style="fill: #fdae6b; " r="5" class="circle c6-1"><title>193.3</title></circle></g><rect class="labelR" x="400" y="26.72272499999997" width="74" height="20" style="fill: #ffffff; stroke: #fdae6b; "></rect><text class="labelText" x="405" y="41.72272499999997">South Asia</text></g></svg>