<svg height="400" width="600" version="1.1" xmlns="http://www.w3.org/2000/svg">
<g class="x axis" transform="translate(0,380)"><g style="opacity: 1; " transform="translate(50,0)"><line class="tick" x2="0" y2="6" style="stroke: #000000; "></line><text x="0" y="9" dy=".71em" text-anchor="middle">2010</text></g><g style="opacity: 1; " transform="translate(135,0)"><line class="tick" x2="0" y2="6" style="stroke: #000000; "></line><text x="0" y="9" dy=".71em" text-anchor="middle">2020</text></g><g style="opacity: 1; " transform="translate(220,0)"><line class="tick" x2="0" y2="6" style="stroke: #000000; "></line><text x="0" y="9" dy=".71em" text-anchor="middle">2030</text></g><g style="opacity: 1; " transform="translate(305,0)"><line class="tick" x2="0" y2="6" style="stroke: #000000; "></line><text x="0" y="9" dy=".71em" text-anchor="middle">2040</text></g><g style="opacity: 1; " transform="translate(390,0)"><line class="tick" x2="0" y2="6" style="stroke: #000000; "></line><text x="0" y="9" dy=".71em" text-anchor="middle">2050</text></g><path class="domain" d="M50,0V0H390V0" style="stroke: #000000; "></path></g><g class="y axis" transform="translate(50,0)"><g style="opacity: 1; " transform="translate(0,380)"><line class="tick" x2="-6" y2="0" style="stroke: #000000; "></line><text x="-9" y="0" dy=".32em" text-anchor="end">20</text></g><g style="opacity: 1; " transform="translate(0,321.6666666666667)"><line class="tick" x2="-6" y2="0" style="stroke: #000000; "></line><text x="-9" y="0" dy=".32em" text-anchor="end">30</text></g><g style="opacity: 1; " transform="translate(0,263.33333333333337)"><line class="tick" x2="-6" y2="0" style="stroke: #000000; "></line><text x="-9" y="0" dy=".32em" text-anchor="end">40</text></g><g style="opacity: 1; " transform="translate(0,205)"><line class="tick" x2="-6" y2="0" style="stroke: #000000; "></line><text x="-9" y="0" dy=".32em" text-anchor="end">50</text></g><g style="opacity: 1; " transform="translate(0,146.66666666666669)"><line class="tick" x2="-6" y2="0" style="stroke: #000000; "></line><text x="-9" y="0" dy=".32em" text-anchor="end">60</text></g><g style="opacity: 1; " transform="translate(0,88.33333333333331)"><line class="tick" x2="-6" y2="0" style="stroke: #000000; "></line><text x="-9" y="0" dy=".32em" text-anchor="end">70</text></g><g style="opacity: 1; " transform="translate(0,30)"><line class="tick" x2="-6" y2="0" style="stroke: #000000; "></line><text x="-9" y="0" dy=".32em" text-anchor="end">80</text></g><path class="domain" d="M0,30H0V380H0" style="stroke: #000000; "></path></g><text transform="rotate(-90) translate(-100,20)" x="20" y="0">MSA%</text><g class="series" id="g11"><g class="lines"><line x1="50" x2="135" y1="102.77317932015308" y2="119.56657558604587" style="stroke: #000000; stroke-width: 2px; "></line><line x1="135" x2="220" y1="119.56657558604587" y2="128.97706538035985" style="stroke: #000000; stroke-width: 2px; "></line><line x1="220" x2="390" y1="128.97706538035985" y2="144.10899028659958" style="stroke: #000000; stroke-width: 2px; "></line></g><g class="circles"><circle cx="50" cy="102.77317932015308" style="fill: #000000; " r="3" class="circle c110"><title>67.5</title></circle><circle cx="135" cy="119.56657558604587" style="fill: #000000; " r="5" class="circle c11-0"><title>64.6</title></circle><circle cx="220" cy="128.97706538035985" style="fill: #000000; " r="5" class="circle c11-1"><title>63.0</title></circle><circle cx="390" cy="144.10899028659958" style="fill: #000000; " r="5" class="circle c11-2"><title>60.4</title></circle></g><rect class="labelR" x="400" y="129.10899028659958" width="44" height="20" style="fill: #ffffff; stroke: #000000; "></rect><text class="labelText" x="405" y="144.10899028659958">World</text></g><g class="series" id="g0"><g class="lines"><line x1="50" x2="135" y1="86.06397004904852" y2="98.64697455895538" style="stroke: #3182bd; stroke-width: 2px; "></line><line x1="135" x2="220" y1="98.64697455895538" y2="102.70204398643318" style="stroke: #3182bd; stroke-width: 2px; "></line><line x1="220" x2="390" y1="102.70204398643318" y2="115.7195940065867" style="stroke: #3182bd; stroke-width: 2px; "></line></g><g class="circles"><circle cx="50" cy="86.06397004904852" style="fill: #3182bd; " r="3" class="circle c00"><title>70.4</title></circle><circle cx="135" cy="98.64697455895538" style="fill: #3182bd; " r="5" class="circle c0-0"><title>68.2</title></circle><circle cx="220" cy="102.70204398643318" style="fill: #3182bd; " r="5" class="circle c0-1"><title>67.5</title></circle><circle cx="390" cy="115.7195940065867" style="fill: #3182bd; " r="5" class="circle c0-2"><title>65.3</title></circle></g><rect class="labelR" x="400" y="100.7195940065867" width="93" height="20" style="fill: #ffffff; stroke: #3182bd; "></rect><text class="labelText" x="405" y="115.7195940065867">North America</text></g><g class="series" id="g1"><g class="lines"><line x1="50" x2="135" y1="272.89852336482016" y2="296.34068637633214" style="stroke: #6baed6; stroke-width: 2px; "></line><line x1="135" x2="220" y1="296.34068637633214" y2="310.4872780161976" style="stroke: #6baed6; stroke-width: 2px; "></line><line x1="220" x2="390" y1="310.4872780161976" y2="326.01134831730815" style="stroke: #6baed6; stroke-width: 2px; "></line></g><g class="circles"><circle cx="50" cy="272.89852336482016" style="fill: #6baed6; " r="3" class="circle c10"><title>38.4</title></circle><circle cx="135" cy="296.34068637633214" style="fill: #6baed6; " r="5" class="circle c1-0"><title>34.3</title></circle><circle cx="220" cy="310.4872780161976" style="fill: #6baed6; " r="5" class="circle c1-1"><title>31.9</title></circle><circle cx="390" cy="326.01134831730815" style="fill: #6baed6; " r="5" class="circle c1-2"><title>29.3</title></circle></g><rect class="labelR" x="400" y="311.01134831730815" width="51" height="20" style="fill: #ffffff; stroke: #6baed6; "></rect><text class="labelText" x="405" y="326.01134831730815">Europe</text></g><g class="series" id="g5"><g class="lines"><line x1="50" x2="135" y1="47.36660425244844" y2="55.31770533898026" style="stroke: #fd8d3c; stroke-width: 2px; "></line><line x1="135" x2="220" y1="55.31770533898026" y2="61.265640375351666" style="stroke: #fd8d3c; stroke-width: 2px; "></line><line x1="220" x2="390" y1="61.265640375351666" y2="69.87523670511445" style="stroke: #fd8d3c; stroke-width: 2px; "></line></g><g class="circles"><circle cx="50" cy="47.36660425244844" style="fill: #fd8d3c; " r="3" class="circle c50"><title>77.0</title></circle><circle cx="135" cy="55.31770533898026" style="fill: #fd8d3c; " r="5" class="circle c5-0"><title>75.7</title></circle><circle cx="220" cy="61.265640375351666" style="fill: #fd8d3c; " r="5" class="circle c5-1"><title>74.6</title></circle><circle cx="390" cy="69.87523670511445" style="fill: #fd8d3c; " r="5" class="circle c5-2"><title>73.2</title></circle></g><rect class="labelR" x="400" y="54.875236705114446" width="50" height="20" style="fill: #ffffff; stroke: #fd8d3c; "></rect><text class="labelText" x="405" y="69.87523670511445">Russia</text></g><g class="series" id="g6"><g class="lines"><line x1="50" x2="135" y1="247.40584078080292" y2="256.55757589219536" style="stroke: #fdae6b; stroke-width: 2px; "></line><line x1="135" x2="220" y1="256.55757589219536" y2="263.60589166000864" style="stroke: #fdae6b; stroke-width: 2px; "></line><line x1="220" x2="390" y1="263.60589166000864" y2="275.18064187013425" style="stroke: #fdae6b; stroke-width: 2px; "></line></g><g class="circles"><circle cx="50" cy="247.40584078080292" style="fill: #fdae6b; " r="3" class="circle c60"><title>42.7</title></circle><circle cx="135" cy="256.55757589219536" style="fill: #fdae6b; " r="5" class="circle c6-0"><title>41.2</title></circle><circle cx="220" cy="263.60589166000864" style="fill: #fdae6b; " r="5" class="circle c6-1"><title>40.0</title></circle><circle cx="390" cy="275.18064187013425" style="fill: #fdae6b; " r="5" class="circle c6-2"><title>38.0</title></circle></g><rect class="labelR" x="400" y="260.18064187013425" width="74" height="20" style="fill: #ffffff; stroke: #fdae6b; "></rect><text class="labelText" x="405" y="275.18064187013425">South Asia</text></g><g class="series" id="g7"><g class="lines"><line x1="50" x2="135" y1="146.57413956503643" y2="162.03294323802797" style="stroke: #fdd0a2; stroke-width: 2px; "></line><line x1="135" x2="220" y1="162.03294323802797" y2="162.8452397495633" style="stroke: #fdd0a2; stroke-width: 2px; "></line><line x1="220" x2="390" y1="162.8452397495633" y2="182.76060194937617" style="stroke: #fdd0a2; stroke-width: 2px; "></line></g><g class="circles"><circle cx="50" cy="146.57413956503643" style="fill: #fdd0a2; " r="3" class="circle c70"><title>60.0</title></circle><circle cx="135" cy="162.03294323802797" style="fill: #fdd0a2; " r="5" class="circle c7-0"><title>57.4</title></circle><circle cx="220" cy="162.8452397495633" style="fill: #fdd0a2; " r="5" class="circle c7-1"><title>57.2</title></circle><circle cx="390" cy="182.76060194937617" style="fill: #fdd0a2; " r="5" class="circle c7-2"><title>53.8</title></circle></g><rect class="labelR" x="400" y="167.76060194937617" width="43" height="20" style="fill: #ffffff; stroke: #fdd0a2; "></rect><text class="labelText" x="405" y="182.76060194937617">China</text></g></svg>