<?xml version="1.0" standalone="no"?>
<!DOCTYPE svg PUBLIC "-//W3C//DTD SVG 1.1//EN" "http://www.w3.org/Graphics/SVG/1.1/DTD/svg11.dtd">
<svg width="600" height="400">
<style type="text/css" >
.c0{color:#0078ba;}.c9{color:#b2b2b2;}.c1{color:#af418e;}.c8{color:#97bf0d;}.c6{color:#ed4e70;}.c3{color:#ffdd00;}.c2{color:#e5352d;}.c4{color:#009036;}.c7{color:#e15c12;}.c5{color:#009ee0;}
.v0{fill:#0078ba;}.v9{fill:#b2b2b2;}.v1{fill:#af418e;}.v8{fill:#97bf0d;}.v6{fill:#ed4e70;}.v3{fill:#ffdd00;}.v2{fill:#e5352d;}.v4{fill:#009036;}.v7{fill:#e15c12;}.v5{fill:#009ee0;}
.l0{stroke:#0078ba;}.l9{stroke:#b2b2b2;}.l1{stroke:#af418e;}.l8{stroke:#97bf0d;}.l6{stroke:#ed4e70;}.l3{stroke:#ffdd00;}.l2{stroke:#e5352d;}.l4{stroke:#009036;}.l7{stroke:#e15c12;}.l5{stroke:#009ee0;}
.highlighted {fill:#b2b2b2;}
.gridline {stroke:#ddd;stroke-opacity:.5;stroke-width:1;}
.chartBkg {fill:white;stroke:#0078ba};

.titleBox.blue text {fill:white;}
.titleBox.blue path {fill:white;}
.titleBox.blue rect {fill:#0078ba;}
</style>
<rect width="600" height="400" class="chartBkg" style="fill: #ffffff; stroke: #0078ba; "></rect><g></g><g transform="translate(36,95)" class="chartarea"><rect width="534" height="164" style="fill: #ffffff; "></rect><g class="column" transform="translate(4.810810810810811,0)"><a title="Mexico: 18.44"><rect class="clusteredRect v0" y="164" height="0" x="0" width="21.648648648648653"></rect></a><a title="Mexico: 9.197"><rect class="clusteredRect v1" y="164" height="0" x="21.648648648648653" width="21.648648648648653"></rect></a></g><g class="column" transform="translate(52.918918918918926,0)"><a title="USA: 17.678"><rect class="clusteredRect v0" y="164" height="0" x="0" width="21.648648648648653"></rect></a><a title="USA: 10.321"><rect class="clusteredRect v1" y="164" height="0" x="21.648648648648653" width="21.648648648648653"></rect></a></g><g class="column" transform="translate(101.02702702702703,0)"><a title="Australia: 14.966"><rect class="clusteredRect v0" y="164" height="0" x="0" width="21.648648648648653"></rect></a><a title="Australia: 7.882"><rect class="clusteredRect v1" y="164" height="0" x="21.648648648648653" width="21.648648648648653"></rect></a></g><g class="column" transform="translate(149.13513513513513,0)"><a title="Spain: 13.758"><rect class="clusteredRect v0" y="164" height="0" x="0" width="21.648648648648653"></rect></a><a title="Spain: 6.195"><rect class="clusteredRect v1" y="164" height="0" x="21.648648648648653" width="21.648648648648653"></rect></a></g><g class="column" transform="translate(77.91459074733096,0)"><a title="Estonia: 13.756"><rect class="clusteredRect v0" y="164" height="0" x="0" width="0"></rect></a><a title="Estonia: 10.108"><rect class="clusteredRect v1" y="164" height="0" x="8.551601423487545" width="0"></rect></a></g><g class="column" transform="translate(197.24324324324326,0)"><a title="OECD: 13.54238462"><rect class="clusteredRect v0" y="164" height="0" x="0" width="21.648648648648653"></rect></a><a title="OECD: 7.201307692"><rect class="clusteredRect v1" y="164" height="0" x="21.648648648648653" width="21.648648648648653"></rect></a></g><g class="column" transform="translate(115.92170818505338,0)"><a title="Greece: 13.421"><rect class="clusteredRect v0" y="164" height="0" x="0" width="0"></rect></a><a title="Greece: 7.351"><rect class="clusteredRect v1" y="164" height="0" x="8.551601423487545" width="0"></rect></a></g><g class="column" transform="translate(245.35135135135138,0)"><a title="Canada: 12.955"><rect class="clusteredRect v0" y="164" height="0" x="0" width="21.648648648648653"></rect></a><a title="Canada: 7.226"><rect class="clusteredRect v1" y="164" height="0" x="21.648648648648653" width="21.648648648648653"></rect></a></g><g class="column" transform="translate(153.9288256227758,0)"><a title="Portugal: 12.704"><rect class="clusteredRect v0" y="164" height="0" x="0" width="0"></rect></a><a title="Portugal: 5.799"><rect class="clusteredRect v1" y="164" height="0" x="8.551601423487545" width="0"></rect></a></g><g class="column" transform="translate(293.4594594594595,0)"><a title="Italy: 12.483"><rect class="clusteredRect v0" y="164" height="0" x="0" width="21.648648648648653"></rect></a><a title="Italy: 6.765"><rect class="clusteredRect v1" y="164" height="0" x="21.648648648648653" width="21.648648648648653"></rect></a></g><g class="column" transform="translate(341.5675675675676,0)"><a title="UK: 12.324"><rect class="clusteredRect v0" y="164" height="0" x="0" width="21.648648648648653"></rect></a><a title="UK: 5.225"><rect class="clusteredRect v1" y="164" height="0" x="21.648648648648653" width="21.648648648648653"></rect></a></g><g class="column" transform="translate(210.93950177935943,0)"><a title="Poland: 11.515"><rect class="clusteredRect v0" y="164" height="0" x="0" width="0"></rect></a><a title="Poland: 6.422"><rect class="clusteredRect v1" y="164" height="0" x="8.551601423487545" width="0"></rect></a></g><g class="column" transform="translate(229.94306049822063,0)"><a title="Ireland: 11.336"><rect class="clusteredRect v0" y="164" height="0" x="0" width="0"></rect></a><a title="Ireland: 4.44"><rect class="clusteredRect v1" y="164" height="0" x="8.551601423487545" width="0"></rect></a></g><g class="column" transform="translate(389.67567567567573,0)"><a title="Germany: 10.715"><rect class="clusteredRect v0" y="164" height="0" x="0" width="21.648648648648653"></rect></a><a title="Germany: 6.686"><rect class="clusteredRect v1" y="164" height="0" x="21.648648648648653" width="21.648648648648653"></rect></a></g><g class="column" transform="translate(267.9501779359431,0)"><a title="Belgium: 9.923"><rect class="clusteredRect v0" y="164" height="0" x="0" width="0"></rect></a><a title="Belgium: 4.026"><rect class="clusteredRect v1" y="164" height="0" x="8.551601423487545" width="0"></rect></a></g><g class="column" transform="translate(286.9537366548043,0)"><a title="Norway: 9.034"><rect class="clusteredRect v0" y="164" height="0" x="0" width="0"></rect></a><a title="Norway: 6.056"><rect class="clusteredRect v1" y="164" height="0" x="8.551601423487545" width="0"></rect></a></g><g class="column" transform="translate(305.9572953736655,0)"><a title="Austria: 7.887"><rect class="clusteredRect v0" y="164" height="0" x="0" width="0"></rect></a><a title="Austria: 4.482"><rect class="clusteredRect v1" y="164" height="0" x="8.551601423487545" width="0"></rect></a></g><g class="column" transform="translate(324.9608540925267,0)"><a title="Luxembourg: 7.623"><rect class="clusteredRect v0" y="164" height="0" x="0" width="0"></rect></a><a title="Luxembourg: 3.479"><rect class="clusteredRect v1" y="164" height="0" x="8.551601423487545" width="0"></rect></a></g><g class="column" transform="translate(343.9644128113879,0)"><a title="Hungary: 7.267"><rect class="clusteredRect v0" y="164" height="0" x="0" width="0"></rect></a><a title="Hungary: 3.425"><rect class="clusteredRect v1" y="164" height="0" x="8.551601423487545" width="0"></rect></a></g><g class="column" transform="translate(362.96797153024914,0)"><a title="Slovenia: 6.991"><rect class="clusteredRect v0" y="164" height="0" x="0" width="0"></rect></a><a title="Slovenia: 4.69"><rect class="clusteredRect v1" y="164" height="0" x="8.551601423487545" width="0"></rect></a></g><g class="column" transform="translate(381.97153024911034,0)"><a title="Finland: 6.788"><rect class="clusteredRect v0" y="164" height="0" x="0" width="0"></rect></a><a title="Finland: 4.266"><rect class="clusteredRect v1" y="164" height="0" x="8.551601423487545" width="0"></rect></a></g><g class="column" transform="translate(437.78378378378386,0)"><a title="France: 6.704"><rect class="clusteredRect v0" y="164" height="0" x="0" width="21.648648648648653"></rect></a><a title="France: 3.061"><rect class="clusteredRect v1" y="164" height="0" x="21.648648648648653" width="21.648648648648653"></rect></a></g><g class="column" transform="translate(419.97864768683274,0)"><a title="Denmark: 6.687"><rect class="clusteredRect v0" y="164" height="0" x="0" width="0"></rect></a><a title="Denmark: 3.939"><rect class="clusteredRect v1" y="164" height="0" x="8.551601423487545" width="0"></rect></a></g><g class="column" transform="translate(438.98220640569394,0)"><a title="Sweden: 6.464"><rect class="clusteredRect v0" y="164" height="0" x="0" width="0"></rect></a><a title="Sweden: 4.804"><rect class="clusteredRect v1" y="164" height="0" x="8.551601423487545" width="0"></rect></a></g><g class="column" transform="translate(457.98576512455514,0)"><a title="Netherlands: 6.123"><rect class="clusteredRect v0" y="164" height="0" x="0" width="0"></rect></a><a title="Netherlands: 3.823"><rect class="clusteredRect v1" y="164" height="0" x="8.551601423487545" width="0"></rect></a></g><g class="column" transform="translate(476.9893238434164,0)"><a title="Iceland: 5.928"><rect class="clusteredRect v0" y="164" height="0" x="0" width="0"></rect></a><a title="Iceland: 3.553"><rect class="clusteredRect v1" y="164" height="0" x="8.551601423487545" width="0"></rect></a></g><g class="column" transform="translate(495.9928825622776,0)"><a title="Slovak Republic: 5.88"><rect class="clusteredRect v0" y="164" height="0" x="0" width="0"></rect></a><a title="Slovak Republic: 2.869"><rect class="clusteredRect v1" y="164" height="0" x="8.551601423487545" width="0"></rect></a></g><g class="column" transform="translate(485.891891891892,0)"><a title="Czech Republic: 5.523"><rect class="clusteredRect v0" y="164" height="0" x="0" width="21.648648648648653"></rect></a><a title="Czech Republic: 2.559"><rect class="clusteredRect v1" y="164" height="0" x="21.648648648648653" width="21.648648648648653"></rect></a></g><g class="hLabel" transform="translate(4.810810810810811,164)"><text x="-1" dy=".35em" style="font: normal normal normal 12px/normal 'Helvetica Neue', Arial, Helvetica, sans-serif; " transform="rotate(-90),translate(-5,8.551601423487545)" text-anchor="end">Mexico</text></g><g class="hLabel" transform="translate(52.918918918918926,164)"><text x="-1" dy=".35em" style="font: normal normal normal 12px/normal 'Helvetica Neue', Arial, Helvetica, sans-serif; " transform="rotate(-90),translate(-5,8.551601423487545)" text-anchor="end">USA</text></g><g class="hLabel" transform="translate(101.02702702702703,164)"><text x="-1" dy=".35em" style="font: normal normal normal 12px/normal 'Helvetica Neue', Arial, Helvetica, sans-serif; " transform="rotate(-90),translate(-5,8.551601423487545)" text-anchor="end">Australia</text></g><g class="hLabel" transform="translate(149.13513513513513,164)"><text x="-1" dy=".35em" style="font: normal normal normal 12px/normal 'Helvetica Neue', Arial, Helvetica, sans-serif; " transform="rotate(-90),translate(-5,8.551601423487545)" text-anchor="end">Spain</text></g><g class="hLabel" transform="translate(77.91459074733096,164)" visibility="hidden"><text x="-1" dy=".35em" style="font: normal normal normal 12px/normal 'Helvetica Neue', Arial, Helvetica, sans-serif; " transform="rotate(-90),translate(-5,8.551601423487545)" text-anchor="end">Estonia</text></g><g class="hLabel" transform="translate(197.24324324324326,164)"><text x="-1" dy=".35em" style="font: normal normal normal 12px/normal 'Helvetica Neue', Arial, Helvetica, sans-serif; " transform="rotate(-90),translate(-5,8.551601423487545)" text-anchor="end">OECD</text></g><g class="hLabel" transform="translate(115.92170818505338,164)" visibility="hidden"><text x="-1" dy=".35em" style="font: normal normal normal 12px/normal 'Helvetica Neue', Arial, Helvetica, sans-serif; " transform="rotate(-90),translate(-5,8.551601423487545)" text-anchor="end">Greece</text></g><g class="hLabel" transform="translate(245.35135135135138,164)"><text x="-1" dy=".35em" style="font: normal normal normal 12px/normal 'Helvetica Neue', Arial, Helvetica, sans-serif; " transform="rotate(-90),translate(-5,8.551601423487545)" text-anchor="end">Canada</text></g><g class="hLabel" transform="translate(153.9288256227758,164)" visibility="hidden"><text x="-1" dy=".35em" style="font: normal normal normal 12px/normal 'Helvetica Neue', Arial, Helvetica, sans-serif; " transform="rotate(-90),translate(-5,8.551601423487545)" text-anchor="end">Portugal</text></g><g class="hLabel" transform="translate(293.4594594594595,164)"><text x="-1" dy=".35em" style="font: normal normal normal 12px/normal 'Helvetica Neue', Arial, Helvetica, sans-serif; " transform="rotate(-90),translate(-5,8.551601423487545)" text-anchor="end">Italy</text></g><g class="hLabel" transform="translate(341.5675675675676,164)"><text x="-1" dy=".35em" style="font: normal normal normal 12px/normal 'Helvetica Neue', Arial, Helvetica, sans-serif; " transform="rotate(-90),translate(-5,8.551601423487545)" text-anchor="end">UK</text></g><g class="hLabel" transform="translate(210.93950177935943,164)" visibility="hidden"><text x="-1" dy=".35em" style="font: normal normal normal 12px/normal 'Helvetica Neue', Arial, Helvetica, sans-serif; " transform="rotate(-90),translate(-5,8.551601423487545)" text-anchor="end">Poland</text></g><g class="hLabel" transform="translate(229.94306049822063,164)" visibility="hidden"><text x="-1" dy=".35em" style="font: normal normal normal 12px/normal 'Helvetica Neue', Arial, Helvetica, sans-serif; " transform="rotate(-90),translate(-5,8.551601423487545)" text-anchor="end">Ireland</text></g><g class="hLabel" transform="translate(389.67567567567573,164)"><text x="-1" dy=".35em" style="font: normal normal normal 12px/normal 'Helvetica Neue', Arial, Helvetica, sans-serif; " transform="rotate(-90),translate(-5,8.551601423487545)" text-anchor="end">Germany</text></g><g class="hLabel" transform="translate(267.9501779359431,164)" visibility="hidden"><text x="-1" dy=".35em" style="font: normal normal normal 12px/normal 'Helvetica Neue', Arial, Helvetica, sans-serif; " transform="rotate(-90),translate(-5,8.551601423487545)" text-anchor="end">Belgium</text></g><g class="hLabel" transform="translate(286.9537366548043,164)" visibility="hidden"><text x="-1" dy=".35em" style="font: normal normal normal 12px/normal 'Helvetica Neue', Arial, Helvetica, sans-serif; " transform="rotate(-90),translate(-5,8.551601423487545)" text-anchor="end">Norway</text></g><g class="hLabel" transform="translate(305.9572953736655,164)" visibility="hidden"><text x="-1" dy=".35em" style="font: normal normal normal 12px/normal 'Helvetica Neue', Arial, Helvetica, sans-serif; " transform="rotate(-90),translate(-5,8.551601423487545)" text-anchor="end">Austria</text></g><g class="hLabel" transform="translate(324.9608540925267,164)" visibility="hidden"><text x="-1" dy=".35em" style="font: normal normal normal 12px/normal 'Helvetica Neue', Arial, Helvetica, sans-serif; " transform="rotate(-90),translate(-5,8.551601423487545)" text-anchor="end">Luxembourg</text></g><g class="hLabel" transform="translate(343.9644128113879,164)" visibility="hidden"><text x="-1" dy=".35em" style="font: normal normal normal 12px/normal 'Helvetica Neue', Arial, Helvetica, sans-serif; " transform="rotate(-90),translate(-5,8.551601423487545)" text-anchor="end">Hungary</text></g><g class="hLabel" transform="translate(362.96797153024914,164)" visibility="hidden"><text x="-1" dy=".35em" style="font: normal normal normal 12px/normal 'Helvetica Neue', Arial, Helvetica, sans-serif; " transform="rotate(-90),translate(-5,8.551601423487545)" text-anchor="end">Slovenia</text></g><g class="hLabel" transform="translate(381.97153024911034,164)" visibility="hidden"><text x="-1" dy=".35em" style="font: normal normal normal 12px/normal 'Helvetica Neue', Arial, Helvetica, sans-serif; " transform="rotate(-90),translate(-5,8.551601423487545)" text-anchor="end">Finland</text></g><g class="hLabel" transform="translate(437.78378378378386,164)"><text x="-1" dy=".35em" style="font: normal normal normal 12px/normal 'Helvetica Neue', Arial, Helvetica, sans-serif; " transform="rotate(-90),translate(-5,8.551601423487545)" text-anchor="end">France</text></g><g class="hLabel" transform="translate(419.97864768683274,164)" visibility="hidden"><text x="-1" dy=".35em" style="font: normal normal normal 12px/normal 'Helvetica Neue', Arial, Helvetica, sans-serif; " transform="rotate(-90),translate(-5,8.551601423487545)" text-anchor="end">Denmark</text></g><g class="hLabel" transform="translate(438.98220640569394,164)" visibility="hidden"><text x="-1" dy=".35em" style="font: normal normal normal 12px/normal 'Helvetica Neue', Arial, Helvetica, sans-serif; " transform="rotate(-90),translate(-5,8.551601423487545)" text-anchor="end">Sweden</text></g><g class="hLabel" transform="translate(457.98576512455514,164)" visibility="hidden"><text x="-1" dy=".35em" style="font: normal normal normal 12px/normal 'Helvetica Neue', Arial, Helvetica, sans-serif; " transform="rotate(-90),translate(-5,8.551601423487545)" text-anchor="end">Netherlands</text></g><g class="hLabel" transform="translate(476.9893238434164,164)" visibility="hidden"><text x="-1" dy=".35em" style="font: normal normal normal 12px/normal 'Helvetica Neue', Arial, Helvetica, sans-serif; " transform="rotate(-90),translate(-5,8.551601423487545)" text-anchor="end">Iceland</text></g><g class="hLabel" transform="translate(495.9928825622776,164)" visibility="hidden"><text x="-1" dy=".35em" style="font: normal normal normal 12px/normal 'Helvetica Neue', Arial, Helvetica, sans-serif; " transform="rotate(-90),translate(-5,8.551601423487545)" text-anchor="end">Slovak Republic</text></g><g class="hLabel" transform="translate(485.891891891892,164)"><text x="-1" dy=".35em" style="font: normal normal normal 12px/normal 'Helvetica Neue', Arial, Helvetica, sans-serif; " transform="rotate(-90),translate(-5,8.551601423487545)" text-anchor="end">Czech Republic</text></g></g><g class="titleBox blue"><rect x="0" y="0" width="600" height="62.599999999999994"></rect><text x="33.8" y="26.299999999999997" style="font: normal normal bold 24px/normal 'Helvetica Neue', Arial, Helvetica, sans-serif; ">Poverty and public services</text><text x="33.8" y="33.3" style="dominant-baseline: hanging; font: normal normal normal 24px/normal 'Helvetica Neue', Arial, Helvetica, sans-serif; ">Poverty rates with and without public services, 2007</text><path d="M0.48095999999999994,0.9619199999999999L13.440959999999999,22.078079999999996L13.440959999999999,35.52192L0.48095999999999994,56.638079999999995L0.48095999999999994,43.199999999999996L9.599039999999999,28.799999999999997L0.48095999999999994,14.399999999999999Z" transform="translate(1,2.5)"></path><path d="M0.48095999999999994,0.9619199999999999L13.440959999999999,22.078079999999996L13.440959999999999,35.52192L0.48095999999999994,56.638079999999995L0.48095999999999994,43.199999999999996L9.599039999999999,28.799999999999997L0.48095999999999994,14.399999999999999Z" transform="translate(15.399999999999999,2.5)"></path></g><g transform="translate(10,380)" class="legends"><rect x="10" y="3" width="15" height="11" class="v0"></rect><text x="30" y="10" style="font: normal normal normal 12px/normal 'Helvetica Neue', Arial, Helvetica, sans-serif; ">Poverty rates</text><rect x="105" y="3" width="15" height="11" class="v1"></rect><text x="125" y="10" style="font: normal normal normal 12px/normal 'Helvetica Neue', Arial, Helvetica, sans-serif; ">Including all public services</text></g><g class="sources" transform="translate(590,390)"><text text-anchor="end">Source: Divided We Stand, OECD</text></g></svg>
