<?xml version="1.0" standalone="no"?> <!DOCTYPE svg PUBLIC "-//W3C//DTD SVG 1.1//EN" "http://www.w3.org/Graphics/SVG/1.1/DTD/svg11.dtd"> <svg xmlns="http://www.w3.org/2000/svg" font-size="10px" font-family="sans-serif" fill="none" stroke="none" stroke-width="1.5" width="330" height="220"><rect width="330" height="220" fill="rgb(255,255,255)"/><g><g transform="translate(30,60)"><line shape-rendering="crispEdges" x1="-0.5" y1="0" x2="-0.5" y2="110" stroke="rgb(238,238,238)" stroke-width="1"/><line shape-rendering="crispEdges" x1="69.5" y1="0" x2="69.5" y2="110" stroke="rgb(238,238,238)" stroke-width="1"/><line shape-rendering="crispEdges" x1="139.5" y1="0" x2="139.5" y2="110" stroke="rgb(238,238,238)" stroke-width="1"/><line shape-rendering="crispEdges" x1="209.5" y1="0" x2="209.5" y2="110" stroke="rgb(238,238,238)" stroke-width="1"/><line shape-rendering="crispEdges" x1="279.5" y1="0" x2="279.5" y2="110" stroke="rgb(238,238,238)" stroke-width="1"/></g><g transform="translate(30,60)"><text pointer-events="none" x="5" y="5" dy=".71em" transform="translate(-0.5,110)" fill="rgb(0,0,0)" style="font: 10px 'Helvetica Neue',Arial,Helvetica,sans-serif;">2001</text><text pointer-events="none" y="5" dy=".71em" transform="translate(69.5,110)" fill="rgb(0,0,0)" text-anchor="middle" style="font: 10px 'Helvetica Neue',Arial,Helvetica,sans-serif;">2006</text><text pointer-events="none" y="5" dy=".71em" transform="translate(139.5,110)" fill="rgb(0,0,0)" text-anchor="middle" style="font: 10px 'Helvetica Neue',Arial,Helvetica,sans-serif;">2011</text><text pointer-events="none" y="5" dy=".71em" transform="translate(209.5,110)" fill="rgb(0,0,0)" text-anchor="middle" style="font: 10px 'Helvetica Neue',Arial,Helvetica,sans-serif;">2016</text><text pointer-events="none" x="-5" y="5" dy=".71em" transform="translate(279.5,110)" fill="rgb(0,0,0)" text-anchor="end" style="font: 10px 'Helvetica Neue',Arial,Helvetica,sans-serif;">2021</text></g><g transform="translate(30,60)"><line shape-rendering="crispEdges" x1="0" y1="110.5" x2="280" y2="110.5" stroke="rgb(238,238,238)" stroke-width="1"/><line shape-rendering="crispEdges" x1="0" y1="93.5" x2="280" y2="93.5" stroke="rgb(238,238,238)" stroke-width="1"/><line shape-rendering="crispEdges" x1="0" y1="76.5" x2="280" y2="76.5" stroke="rgb(238,238,238)" stroke-width="1"/><line shape-rendering="crispEdges" x1="0" y1="59.5" x2="280" y2="59.5" stroke="rgb(238,238,238)" stroke-width="1"/><line shape-rendering="crispEdges" x1="0" y1="42.5" x2="280" y2="42.5" stroke="rgb(238,238,238)" stroke-width="1"/><line shape-rendering="crispEdges" x1="0" y1="25.5" x2="280" y2="25.5" stroke="rgb(238,238,238)" stroke-width="1"/><line shape-rendering="crispEdges" x1="0" y1="8.5" x2="280" y2="8.5" stroke="rgb(238,238,238)" stroke-width="1"/></g><g transform="translate(30,60)"><line shape-rendering="crispEdges" x1="0" y1="110.5" x2="280" y2="110.5" stroke="rgb(0,0,0)" stroke-width="1"/><line shape-rendering="crispEdges" x1="0" y1="93.5" x2="280" y2="93.5" stroke="rgb(255,255,255)" stroke-opacity="0.3" stroke-width="1"/><line shape-rendering="crispEdges" x1="0" y1="76.5" x2="280" y2="76.5" stroke="rgb(255,255,255)" stroke-opacity="0.3" stroke-width="1"/><line shape-rendering="crispEdges" x1="0" y1="59.5" x2="280" y2="59.5" stroke="rgb(255,255,255)" stroke-opacity="0.3" stroke-width="1"/><line shape-rendering="crispEdges" x1="0" y1="42.5" x2="280" y2="42.5" stroke="rgb(255,255,255)" stroke-opacity="0.3" stroke-width="1"/><line shape-rendering="crispEdges" x1="0" y1="25.5" x2="280" y2="25.5" stroke="rgb(255,255,255)" stroke-opacity="0.3" stroke-width="1"/><line shape-rendering="crispEdges" x1="0" y1="8.5" x2="280" y2="8.5" stroke="rgb(255,255,255)" stroke-opacity="0.3" stroke-width="1"/></g><g transform="translate(30,60)"><line shape-rendering="crispEdges" x1="0" y1="110.5" x2="5" y2="110.5" stroke="rgb(0,0,0)" stroke-width="1"/><line shape-rendering="crispEdges" x1="0" y1="93.5" x2="5" y2="93.5" stroke="rgb(0,0,0)" stroke-width="1"/><line shape-rendering="crispEdges" x1="0" y1="76.5" x2="5" y2="76.5" stroke="rgb(0,0,0)" stroke-width="1"/><line shape-rendering="crispEdges" x1="0" y1="59.5" x2="5" y2="59.5" stroke="rgb(0,0,0)" stroke-width="1"/><line shape-rendering="crispEdges" x1="0" y1="42.5" x2="5" y2="42.5" stroke="rgb(0,0,0)" stroke-width="1"/><line shape-rendering="crispEdges" x1="0" y1="25.5" x2="5" y2="25.5" stroke="rgb(0,0,0)" stroke-width="1"/><line shape-rendering="crispEdges" x1="0" y1="8.5" x2="5" y2="8.5" stroke="rgb(0,0,0)" stroke-width="1"/></g><g transform="translate(30,60)"><text pointer-events="none" x="-3" dy=".35em" transform="translate(0,110.5)" fill="rgb(0,0,0)" text-anchor="end" style="font: 10px 'Helvetica Neue',Arial,Helvetica,sans-serif;">0</text><text pointer-events="none" x="-3" dy=".35em" transform="translate(0,93.5)" fill="rgb(0,0,0)" text-anchor="end" style="font: 10px 'Helvetica Neue',Arial,Helvetica,sans-serif;">100</text><text pointer-events="none" x="-3" dy=".35em" transform="translate(0,76.5)" fill="rgb(0,0,0)" text-anchor="end" style="font: 10px 'Helvetica Neue',Arial,Helvetica,sans-serif;">200</text><text pointer-events="none" x="-3" dy=".35em" transform="translate(0,59.5)" fill="rgb(0,0,0)" text-anchor="end" style="font: 10px 'Helvetica Neue',Arial,Helvetica,sans-serif;">300</text><text pointer-events="none" x="-3" dy=".35em" transform="translate(0,42.5)" fill="rgb(0,0,0)" text-anchor="end" style="font: 10px 'Helvetica Neue',Arial,Helvetica,sans-serif;">400</text><text pointer-events="none" x="-3" dy=".35em" transform="translate(0,25.5)" fill="rgb(0,0,0)" text-anchor="end" style="font: 10px 'Helvetica Neue',Arial,Helvetica,sans-serif;">500</text><text pointer-events="none" x="-3" dy=".35em" transform="translate(0,8.5)" fill="rgb(0,0,0)" text-anchor="end" style="font: 10px 'Helvetica Neue',Arial,Helvetica,sans-serif;">600</text></g><g transform="translate(30,60)"><path d="M0,83.78213096955571L14,80.42803535089242L28,84.13625817630431L42,74.90688632128072L56,54.43815715652804L70,72.69836576498034L84,68.67919680096654L98,58.607524366412335L112,38.34120397956761L126,14.195632749261634L140,33.8316993094502L154,42.29715990739008L168,42.785104373556806L182,42.4983231325601L196,36.99975501837186L210,47.70651581377414L224,47.55750502415281L238,47.039085275099815L252,48.388666251154184L266,49.95042585554836L280,50.11221945113301" stroke="rgb(151,191,13)" stroke-width="3"/></g><g transform="translate(30,60)"><path d="M0,66.28053108733101L14,69.19195731045627L28,69.25404246348509L42,61.77759439244797L56,41.35104988080745L70,55.96863435605996L84,55.24072272487517L98,44.97949361664209L112,19.6342425205317L126,0L140,21.11204202300901L154,31.033924431601605L168,30.977719108280567L182,30.689679687088244L196,25.143984831564552L210,36.45402788290656L224,36.70906983929184L238,36.115215694724185L252,37.73600574453786L266,39.31911661474638L280,39.87930319063028" stroke="rgb(237,78,112)" stroke-width="3"/></g></g><g><rect width="330" height="40" fill="rgb(0,120,186)"/><g><path d="M0.2505,5.501L7.0005,16.499L7.0005,23.501L0.2505,34.498999999999995L0.2505,27.5L4.999499999999999,20L0.2505,12.5" fill="rgb(255,255,255)" stroke="rgb(255,255,255)"/></g><g><path d="M10.2505,5.501L17.0005,16.499L17.0005,23.501L10.2505,34.498999999999995L10.2505,27.5L14.9995,20L10.2505,12.5" fill="rgb(255,255,255)" stroke="rgb(255,255,255)"/></g></g><g><text pointer-events="none" x="3" y="-3" transform="translate(20,20)" fill="rgb(255,255,255)" style="font: bold 14px 'Helvetica Neue',Arial,Helvetica,sans-serif;">Prix du sucre, réel</text><text pointer-events="none" x="3" y="3" dy=".71em" transform="translate(20,20)" fill="rgb(255,255,255)" style="font: 12px 'Helvetica Neue',Arial,Helvetica,sans-serif;">USD/t</text></g><g><rect x="30" y="189" width="16.5" height="11" fill="rgb(151,191,13)"/><g transform="translate(30,189)"><text pointer-events="none" x="3" dy=".35em" transform="translate(16.5,5.5)" fill="rgb(0,0,0)" style="font: 8px 'Helvetica Neue',Arial,Helvetica,sans-serif;">Sucre brut</text></g><rect x="250.5" y="189" width="16.5" height="11" fill="rgb(237,78,112)"/><g transform="translate(250.5,189)"><text pointer-events="none" x="3" dy=".35em" transform="translate(16.5,5.5)" fill="rgb(0,0,0)" style="font: 8px 'Helvetica Neue',Arial,Helvetica,sans-serif;">Sucre raffiné</text></g><rect x="471" y="189" width="16.5" height="11" fill="rgb(255,221,0)"/><g transform="translate(471,189)"><text pointer-events="none" x="3" dy=".35em" transform="translate(16.5,5.5)" fill="rgb(0,0,0)" style="font: 8px 'Helvetica Neue',Arial,Helvetica,sans-serif;">undefined</text></g></g><g><text pointer-events="none" x="-3" y="-3" transform="translate(325,215)" fill="rgb(0,0,0)" text-anchor="end" style="font: 8px 'Helvetica Neue',Arial,Helvetica,sans-serif;">Source: OCDE</text></g><rect width="330" height="220" stroke="rgb(0,120,186)"/></svg>